<svg xmlns="http://www.w3.org/2000/svg" width="37" height="37" viewBox="0 0 37 37">
  <g id="그룹_12" data-name="그룹 12" transform="translate(-127 -4586)">
    <rect id="사각형_67" data-name="사각형 67" width="37" height="37" transform="translate(127 4586)" fill="rgba(255,255,255,0)"/>
    <path id="패스_6" data-name="패스 6" d="M0,30.662c1.237,1.567,5.525,4.706,7.67,4.332s8.247.121,4.041-8.95S6.02,8.478,14.68,3.777s12.947-5.36,21.442,0l-.578.99S19.793-5.212,24.658,9.22s8.33,12.37-2.556,23.421c0,0,3.876-13.607-4.041-15.834,0,0,8.247,14.845-2.887,19.3,0,0-7.174.99-9.566,0S0,30.662,0,30.662" transform="translate(127.731 4586)" fill="#6aae27"/>
  </g>
</svg>
