<svg width="190" height="31" viewBox="0 0 190 31" fill="none" xmlns="http://www.w3.org/2000/svg">
<g clip-path="url(#clip0_27_101)">
<path d="M189.841 15.7206L184.274 15.6473V19.5498C184.274 24.5699 183.423 28.2525 183.015 29.3518C182.749 29.6632 182.129 29.8465 181.756 29.7365C181.526 28.8571 181.047 26.1272 181.047 21.5834V4.03144C181.047 3.29858 179.044 1.77789 178.299 1.53971C178.104 1.46643 178.742 0.696922 178.937 0.696922C180.462 0.696922 184.469 1.64964 184.38 2.3825C184.309 2.87718 184.274 3.46347 184.274 4.10472V14.1449L188.493 12.4227C188.865 12.2761 190.532 15.7206 189.858 15.7206M178.281 17.626C178.866 18.4688 177.289 22.0415 176.721 21.1987C175.906 20.0078 173.672 16.4901 171.669 14.1449C168.991 18.0108 165.658 21.1254 162.662 22.7743C162.29 22.7377 161.847 22.1697 161.847 21.8216C165.552 18.4138 169.736 12.441 171.491 6.99952C171.598 6.68806 170.339 5.73534 169.789 5.38723C169.612 5.2773 170.374 4.69101 170.569 4.69101C171.58 4.69101 174.381 5.88191 175.055 6.37659C175.427 6.65141 175.463 6.83463 175.285 7.29267C174.541 9.28971 173.548 11.1951 172.431 12.954C174.948 14.7495 177.732 16.8199 178.281 17.626ZM160.287 16.0504L154.684 15.9404V19.5498C154.684 24.5699 153.904 28.2525 153.461 29.3518C153.195 29.6632 152.575 29.8465 152.238 29.7365C151.972 28.8571 151.529 26.1272 151.529 21.5834V4.03144C151.529 3.29858 149.525 1.85118 148.781 1.53971C148.603 1.46643 149.224 0.696922 149.419 0.696922C150.944 0.696922 154.862 1.64964 154.791 2.3825C154.755 2.87718 154.684 3.46347 154.684 4.10472V14.4564L158.921 12.7708C159.329 12.5876 160.996 16.032 160.287 16.032M142.079 17.7726C143.639 17.7726 144.792 16.655 144.792 14.9327C144.792 13.2105 143.71 12.0563 142.079 12.0563C140.448 12.0563 139.367 13.2105 139.367 14.9327C139.367 16.655 140.448 17.7726 142.079 17.7726ZM136.778 3.13368C136.743 2.98711 136.92 2.51075 137.115 2.52907C138.232 2.74893 139.367 2.95047 140.785 3.13368L144.242 3.51844C144.543 3.55508 145.873 5.44219 144.987 5.44219H139.757C138.87 5.44219 136.831 3.44515 136.76 3.13368M133.303 7.4026C133.268 7.29267 133.481 6.90791 133.569 6.94456C134.154 7.16442 136.229 7.21938 138.196 7.18274L145.27 7.10945C147.309 7.07281 147.912 6.02848 148.231 6.02848C148.568 6.02848 149.862 7.87895 149.862 8.74007C149.862 8.88664 149.72 8.97825 149.49 8.97825C149.153 8.97825 147.185 8.86832 145.625 8.86832L138.019 8.90496C136.796 8.90496 135.98 9.17978 135.608 9.52789C134.651 9.25307 133.463 7.76903 133.339 7.38427M150.199 21.7667C147.15 23.2141 141.299 24.0569 137.292 24.5699C136.211 24.7164 135.555 24.918 134.917 25.3027C133.888 25.0279 132.399 23.4706 132.257 22.8843C132.293 22.7011 132.435 22.5362 132.523 22.4262C133.64 22.4262 135.271 22.4629 137.239 22.3529C138.462 22.2797 139.615 22.2064 140.661 22.1148L140.466 19.0917C137.877 18.6337 136.282 17.058 136.282 14.8778C136.282 12.496 138.285 10.8837 141.441 10.7005C141.476 10.5539 141.512 10.4623 141.512 10.3157C141.512 10.0409 141.441 9.71111 141.069 9.43628C141.069 8.77671 143.107 9.43628 143.107 9.78439C143.107 9.93096 142.93 10.3524 142.841 10.7005C145.926 10.9203 147.876 12.5326 147.876 14.8778C147.876 17.058 146.21 18.6337 143.657 19.0917L143.515 21.8216C146.742 21.4369 148.922 20.9056 150.376 20.4109C150.678 20.3009 150.553 21.5651 150.181 21.7483M111.568 4.67269L111.532 10.5356H119.439L119.634 4.67269H111.55H111.568ZM106.444 3.37186C106.409 3.18865 106.887 2.60236 107.118 2.60236C107.703 2.60236 109.724 2.67565 111.054 2.91383H118.588C119.546 2.91383 120.042 2.76725 120.414 2.41914C120.822 2.27257 123.464 2.69397 123.411 3.152L122.294 10.2058C122.772 10.6638 123.411 11.5799 123.411 12.0746C123.411 12.2212 123.269 12.3128 123.038 12.3128C122.701 12.3128 121.443 12.2761 119.546 12.2761H111.195C110.983 12.6609 110.717 13.009 110.415 13.3754C110.114 13.6869 109.564 13.8334 109.157 13.7235C108.82 12.8807 108.536 11.2684 108.306 8.35531L108.004 4.70933C107.969 4.36122 107.011 3.59172 106.444 3.37186ZM125.254 28.2891C125.254 28.4357 125.148 28.5273 124.882 28.5273H121.39L111 28.5639C108.111 28.5639 107.543 27.5379 107.543 25.5409V22.5545C107.543 22.0232 106.462 21.1071 105.841 21.0155C105.646 20.9788 106.32 20.0994 106.586 20.0994C107.774 20.0994 109.547 20.3742 110.433 20.7223C110.61 20.7956 110.876 20.9056 110.805 21.2903C110.734 21.7483 110.734 22.4079 110.734 22.9759V25.5775C110.734 26.6585 111.107 26.8051 112.029 26.8051L120.751 26.7684C122.595 26.7684 123.198 25.7058 123.428 25.7058C123.907 25.7058 125.254 27.4647 125.254 28.2708M128.552 16.9298C128.552 17.113 128.41 17.2046 128.18 17.2046H117.418V19.2383C117.418 21.3086 116.674 23.1041 116.16 23.9103C115.894 24.2217 115.309 24.3683 114.936 24.2584C114.635 23.3057 114.192 22.0415 114.192 19.733V17.2046H106.958C105.735 17.2046 104.919 17.5527 104.547 17.9008C103.59 17.626 101.657 16.0687 101.657 15.7206C101.657 15.574 101.835 15.1892 101.923 15.2259C102.508 15.4457 104.583 15.4641 106.55 15.4641L123.198 15.4274C125.308 15.4274 126.017 14.1999 126.283 14.1999C126.655 14.1999 128.552 16.0687 128.552 16.9115M81.1273 8.04385C81.1273 10.2974 82.5456 11.7998 84.6908 11.7998C86.836 11.7998 88.4671 10.2974 88.4671 8.04385C88.4671 5.7903 86.9424 4.28794 84.7263 4.28794C82.5102 4.28794 81.1273 5.80862 81.1273 8.04385ZM77.9007 8.15378C77.9007 5.00248 80.3473 2.8955 84.1235 2.67565C84.159 2.56572 84.1944 2.47411 84.1944 2.36418C84.1944 2.05271 84.1235 1.70461 83.6803 1.37482C83.6803 0.678601 85.9496 1.37482 85.9496 1.75957C85.9496 1.90614 85.7723 2.32754 85.6836 2.67565C89.2826 2.95047 91.6583 5.05744 91.6583 8.15378C91.6583 11.415 88.9103 13.5586 84.7972 13.5586C80.6841 13.5586 77.9007 11.415 77.9007 8.15378ZM98.2179 17.7359C98.2179 17.8825 98.0761 17.9741 97.8456 17.9741H90.4704V19.6597C90.4704 24.405 89.6549 28.0876 89.2117 29.1686C88.9457 29.48 88.3252 29.6266 87.9884 29.5533C87.7225 28.6739 87.2438 25.944 87.2438 21.6934V17.9741L82.0492 18.0108V19.0734C82.0492 23.782 81.2337 27.4647 80.8259 28.5456C80.56 28.8571 79.9395 29.0037 79.5672 28.9304C79.3367 28.0509 78.858 25.321 78.858 21.1071V18.0108H76.6242C75.4009 18.0108 74.5854 18.3589 74.2131 18.707C73.2557 18.4321 71.3233 16.8748 71.3233 16.4901C71.3233 16.3801 71.5006 15.9954 71.5892 16.032C72.1743 16.2336 74.2485 16.2702 76.2164 16.2702L92.8638 16.1969C94.9735 16.1969 95.6827 14.9694 95.9486 14.9694C96.3209 14.9694 98.2179 16.8565 98.2179 17.6993M51.0592 6.63309C51.0592 8.55685 52.4598 9.93096 54.5518 9.93096C56.6438 9.93096 58.0444 8.55685 58.0444 6.63309C58.0444 4.70933 56.6438 3.40851 54.5518 3.40851C52.4598 3.40851 51.0592 4.74598 51.0592 6.63309ZM47.8326 6.77966C47.8326 4.01312 50.1728 1.99775 53.8072 1.75957C53.8426 1.57635 53.9136 1.4481 53.9136 1.26489C53.9136 0.953423 53.8072 0.623636 53.3994 0.31217C53.3994 -0.42069 55.6687 0.31217 55.6687 0.660279C55.6687 0.880137 55.4382 1.3565 55.2964 1.74125C58.8954 1.97943 61.3065 3.99479 61.3065 6.76134C61.3065 9.67446 58.5585 11.7448 54.5518 11.7448C50.5451 11.7448 47.8326 9.67446 47.8326 6.76134M63.9304 28.8571C63.9304 29.0403 63.7885 29.0953 63.558 29.0953H50.3501C48.0808 29.0953 47.283 28.2891 47.2298 26.457L47.1589 24.1118C47.1589 23.7637 46.2724 23.3057 45.7051 23.0492C45.6696 22.866 46.1838 22.2797 46.4497 22.2797C47.088 22.2797 49.5168 22.4262 50.3855 22.7377H58.984L59.0195 19.8979H50.421C49.375 19.8979 48.6835 20.1727 48.3112 20.5391C47.088 20.3559 46.0951 18.707 46.0774 18.4688C46.042 18.2856 46.2192 17.9375 46.3788 17.9741C47.4603 18.1756 48.8254 18.1756 50.7933 18.1756H57.8316C58.789 18.1756 59.2854 18.0657 59.6577 17.681C60.0655 17.6443 62.778 17.9558 62.6893 18.4138L61.8383 22.5545C62.4766 23.0492 62.8843 23.892 62.8843 24.0935C62.8843 24.2767 62.778 24.405 62.6184 24.405C62.317 24.405 60.3846 24.3683 58.8067 24.3683H50.3855V25.9073C50.3855 27.0982 50.7224 27.3364 52.247 27.3364H59.6932C61.8029 27.3364 62.1043 26.4203 62.3348 26.4203C62.8134 26.4203 63.9304 28.0693 63.9304 28.8021M67.813 15.2808C67.813 15.4274 67.6711 15.519 67.4407 15.519H62.6539L46.237 15.5557C45.0491 15.5557 44.2336 15.9038 43.8613 16.2152C42.8685 15.9404 41.1133 14.4197 40.9715 14.035C40.936 13.9251 41.1488 13.5403 41.2374 13.5769C41.8225 13.7968 43.879 13.8334 45.8647 13.8334L62.4766 13.7602C64.5509 13.7602 65.26 12.5326 65.5614 12.5326C65.9337 12.5326 67.7952 14.4197 67.7952 15.2625M30.2987 15.2076C30.2987 15.519 30.0683 15.519 29.2527 15.7755C28.9159 15.8855 28.7386 16.4351 28.4727 17.3145C27.8876 19.165 26.0261 22.1514 22.1612 22.1514C18.2963 22.1514 16.2575 18.7436 16.1157 18.5604C15.9207 18.2856 15.6015 18.0291 15.3356 18.0291C15.1583 18.0291 15.0342 18.1024 14.9278 18.1756C13.5273 19.165 12.0026 20.2826 12.0026 22.8476C12.0026 24.5332 13.3677 26.457 15.6724 26.457C17.6403 26.457 18.9346 24.5332 19.3423 23.1957C19.4841 22.7377 19.4487 22.5545 19.6792 22.5545C19.9806 22.5545 20.0869 23.2507 20.4947 23.2507C20.8315 23.2507 20.7252 23.0675 21.1684 23.0675C21.5762 23.0675 21.6825 23.6355 22.0194 23.6355C22.4981 23.6355 23.1363 23.2141 23.4554 23.2141C23.5618 23.2141 23.7213 23.2141 23.7213 23.324C23.7213 23.5072 23.42 23.6721 23.1363 23.9286C22.5512 24.4599 22.1257 24.7714 21.6825 25.5409C20.1224 28.2708 18.314 28.7655 17.3921 29.0586C17.0553 29.1686 16.7184 29.3335 16.5766 29.6632C16.0625 30.8541 15.7611 31.0007 15.6193 31.0007C15.442 31.0007 15.3888 30.7992 15.3533 30.3411C15.3179 29.8464 15.0519 29.2785 14.13 29.1136C11.7898 28.6556 8.90003 26.2005 8.90003 22.3346C8.90003 18.8535 11.453 17.4977 12.7472 16.1603C12.9245 15.9771 13.0486 15.7755 13.0486 15.4641V15.3541C13.0486 15.1892 13.0131 14.9694 12.8004 14.6946C11.5062 13.009 10.5311 11.8914 8.7582 11.8914C6.82576 11.8914 5.12379 13.5403 5.12379 15.9221C5.12379 18.4871 6.34708 19.3665 7.57037 19.678C7.97813 19.7879 8.11996 19.8246 8.11996 19.9528C8.11996 20.2277 7.85403 20.1727 7.85403 20.5941C7.85403 20.9056 8.0845 20.8689 8.0845 21.3636C8.0845 21.7117 7.78311 21.8216 7.78311 22.3529C7.78311 22.7743 7.97813 22.9209 7.97813 23.1591C7.97813 23.4706 8.15542 23.4339 8.15542 24.1118C8.15542 24.295 8.22633 24.4233 8.0845 24.4233C7.94267 24.4233 7.78311 24.1851 7.57037 23.8553C7.09169 23.1225 6.57755 22.6644 6.20525 22.3713C3.24453 20.1544 3.13816 19.1833 2.39354 17.6626C2.21626 17.3145 2.16307 16.7099 1.80849 16.545C0.727033 15.9771 -0.0175781 15.8122 -0.0175781 14.8961C-0.0175781 14.4747 0.461101 14.8961 1.20571 14.8961C1.61348 14.8961 2.09215 14.9694 2.32263 14.0899C2.83677 12.2212 4.96423 9.23475 8.70501 9.23475C12.6763 9.23475 14.6442 12.6425 14.786 12.8258C15.0519 13.2105 15.3001 13.3571 15.5661 13.3571C15.7434 13.3571 15.8675 13.3571 16.1689 13.0823C18.6863 10.7738 18.8814 9.74775 18.8814 8.41028C18.8814 6.7247 17.5872 4.7643 15.2824 4.7643C12.9777 4.7643 11.8785 6.65141 11.5771 8.06217C11.4707 8.52021 11.3998 8.75839 11.2048 8.75839C10.9034 8.75839 10.9034 8.33699 10.5665 8.33699C10.0169 8.33699 9.96376 8.57517 9.6801 8.57517C9.30779 8.57517 9.30779 7.87896 8.7582 7.87896C8.61637 7.87896 8.31498 8.06217 8.11996 8.06217C7.60582 8.06217 7.57037 8.1721 7.33989 8.1721C7.07396 8.1721 6.7903 8.02553 6.7903 7.82399C6.7903 7.62245 6.96759 7.47588 7.49945 7.20106C8.2086 6.81631 8.86457 6.54148 9.20142 5.75366C10.2474 3.33522 12.5699 2.56572 13.4563 2.21761C13.7932 2.07104 13.9705 1.94279 14.13 1.613C14.8392 0.275527 15.1583 0.128955 15.3533 0.128955C15.5483 0.128955 15.5306 0.477064 15.6193 0.898459C15.7256 1.39314 15.7256 1.77789 16.5057 1.97943C18.7218 2.58404 21.9662 4.69101 21.9662 8.53853C21.9662 12.386 18.2963 14.8228 18.119 14.9694C17.7113 15.2808 17.5694 15.5373 17.5694 15.7755C17.5694 15.9587 17.6758 16.1603 17.7822 16.3801C18.6686 18.2123 20.1933 19.4032 21.9662 19.4032C24.0759 19.4032 25.707 17.3695 25.707 15.2625C25.707 13.1556 24.3419 11.8914 23.154 11.5066C22.7108 11.36 22.5158 11.36 22.5158 11.1219C22.5158 10.847 22.8172 10.9386 22.8172 10.5173C22.8172 10.2058 22.6753 10.2791 22.6753 9.78439C22.6753 9.43628 23.0831 9.32635 23.0831 8.79503C23.0831 8.37364 22.8881 8.22706 22.8881 7.98888C22.8881 7.67742 22.7817 7.71406 22.7817 7.03617C22.7817 6.85295 22.7108 6.7247 22.8526 6.7247C23.0299 6.7247 23.1895 6.96288 23.4022 7.29267C23.8809 8.02553 24.2532 8.59349 24.6255 8.83167C27.3026 10.5905 27.8876 11.7082 28.5081 13.2838C28.65 13.6319 28.7741 14.2365 29.1818 14.4747C29.5187 14.6946 30.2633 14.9327 30.2633 15.2076" fill="#EBDD96"/>
</g>
<defs>
<clipPath id="clip0_27_101">
<rect width="190" height="31" fill="white"/>
</clipPath>
</defs>
</svg>
