<svg width="190" height="31" viewBox="0 0 190 31" fill="none" xmlns="http://www.w3.org/2000/svg">
<g clip-path="url(#clip0_3_1418)">
<path d="M189.841 15.7196L184.274 15.6463V19.5488C184.274 24.5689 183.423 28.2515 183.015 29.3508C182.749 29.6623 182.129 29.8455 181.756 29.7355C181.526 28.8561 181.047 26.1262 181.047 21.5825V4.03046C181.047 3.2976 179.044 1.77691 178.299 1.53874C178.104 1.46545 178.742 0.695946 178.937 0.695946C180.462 0.695946 184.469 1.64866 184.38 2.38152C184.309 2.87621 184.274 3.46249 184.274 4.10375V14.1439L188.493 12.4217C188.865 12.2751 190.532 15.7196 189.858 15.7196M178.281 17.625C178.866 18.4678 177.289 22.0405 176.721 21.1977C175.906 20.0068 173.672 16.4891 171.669 14.1439C168.991 18.0098 165.658 21.1244 162.662 22.7734C162.29 22.7367 161.847 22.1688 161.847 21.8207C165.552 18.4128 169.736 12.44 171.491 6.99855C171.598 6.68708 170.339 5.73436 169.789 5.38625C169.612 5.27632 170.374 4.69004 170.569 4.69004C171.58 4.69004 174.381 5.88093 175.055 6.37561C175.427 6.65044 175.463 6.83365 175.285 7.29169C174.541 9.28874 173.548 11.1942 172.431 12.953C174.948 14.7485 177.732 16.8189 178.281 17.625ZM160.287 16.0494L154.684 15.9394V19.5488C154.684 24.5689 153.904 28.2515 153.461 29.3508C153.195 29.6623 152.575 29.8455 152.238 29.7355C151.972 28.8561 151.529 26.1262 151.529 21.5825V4.03046C151.529 3.2976 149.525 1.8502 148.781 1.53874C148.603 1.46545 149.224 0.695946 149.419 0.695946C150.944 0.695946 154.862 1.64866 154.791 2.38152C154.755 2.87621 154.684 3.46249 154.684 4.10375V14.4554L158.921 12.7698C159.329 12.5866 160.996 16.0311 160.287 16.0311M142.079 17.7716C143.639 17.7716 144.792 16.654 144.792 14.9318C144.792 13.2095 143.71 12.0553 142.079 12.0553C140.448 12.0553 139.367 13.2095 139.367 14.9318C139.367 16.654 140.448 17.7716 142.079 17.7716ZM136.778 3.13271C136.743 2.98613 136.92 2.50978 137.115 2.5281C138.232 2.74796 139.367 2.94949 140.785 3.13271L144.242 3.51746C144.543 3.5541 145.873 5.44122 144.987 5.44122H139.757C138.87 5.44122 136.831 3.44417 136.76 3.13271M133.303 7.40162C133.268 7.29169 133.481 6.90694 133.569 6.94358C134.154 7.16344 136.229 7.2184 138.196 7.18176L145.27 7.10848C147.309 7.07183 147.912 6.02751 148.231 6.02751C148.568 6.02751 149.862 7.87798 149.862 8.73909C149.862 8.88566 149.72 8.97727 149.49 8.97727C149.153 8.97727 147.185 8.86734 145.625 8.86734L138.019 8.90398C136.796 8.90398 135.98 9.17881 135.608 9.52691C134.651 9.25209 133.463 7.76805 133.339 7.3833M150.199 21.7657C147.15 23.2131 141.299 24.0559 137.292 24.5689C136.211 24.7154 135.555 24.917 134.917 25.3017C133.888 25.0269 132.399 23.4696 132.257 22.8833C132.293 22.7001 132.435 22.5352 132.523 22.4253C133.64 22.4253 135.271 22.4619 137.239 22.352C138.462 22.2787 139.615 22.2054 140.661 22.1138L140.466 19.0907C137.877 18.6327 136.282 17.0571 136.282 14.8768C136.282 12.495 138.285 10.8827 141.441 10.6995C141.476 10.5529 141.512 10.4613 141.512 10.3147C141.512 10.0399 141.441 9.71013 141.069 9.43531C141.069 8.77573 143.107 9.43531 143.107 9.78342C143.107 9.92999 142.93 10.3514 142.841 10.6995C145.926 10.9193 147.876 12.5316 147.876 14.8768C147.876 17.0571 146.21 18.6327 143.657 19.0907L143.515 21.8207C146.742 21.4359 148.922 20.9046 150.376 20.4099C150.678 20.3 150.553 21.5641 150.181 21.7474M111.568 4.67171L111.532 10.5346H119.439L119.634 4.67171H111.55H111.568ZM106.444 3.37089C106.409 3.18767 106.887 2.60138 107.118 2.60138C107.703 2.60138 109.724 2.67467 111.054 2.91285H118.588C119.546 2.91285 120.042 2.76628 120.414 2.41817C120.822 2.2716 123.464 2.69299 123.411 3.15103L122.294 10.2048C122.772 10.6628 123.411 11.5789 123.411 12.0736C123.411 12.2202 123.269 12.3118 123.038 12.3118C122.701 12.3118 121.443 12.2751 119.546 12.2751H111.195C110.983 12.6599 110.717 13.008 110.415 13.3744C110.114 13.6859 109.564 13.8325 109.157 13.7225C108.82 12.8798 108.536 11.2675 108.306 8.35434L108.004 4.70836C107.969 4.36025 107.011 3.59074 106.444 3.37089ZM125.254 28.2881C125.254 28.4347 125.148 28.5263 124.882 28.5263H121.39L111 28.563C108.111 28.563 107.543 27.537 107.543 25.5399V22.5535C107.543 22.0222 106.462 21.1061 105.841 21.0145C105.646 20.9779 106.32 20.0984 106.586 20.0984C107.774 20.0984 109.547 20.3733 110.433 20.7214C110.61 20.7946 110.876 20.9046 110.805 21.2893C110.734 21.7474 110.734 22.4069 110.734 22.9749V25.5766C110.734 26.6575 111.107 26.8041 112.029 26.8041L120.751 26.7675C122.595 26.7675 123.198 25.7048 123.428 25.7048C123.907 25.7048 125.254 27.4637 125.254 28.2698M128.552 16.9288C128.552 17.112 128.41 17.2036 128.18 17.2036H117.418V19.2373C117.418 21.3076 116.674 23.1032 116.16 23.9093C115.894 24.2208 115.309 24.3673 114.936 24.2574C114.635 23.3047 114.192 22.0405 114.192 19.732V17.2036H106.958C105.735 17.2036 104.919 17.5517 104.547 17.8998C103.59 17.625 101.657 16.0677 101.657 15.7196C101.657 15.573 101.835 15.1883 101.923 15.2249C102.508 15.4448 104.583 15.4631 106.55 15.4631L123.198 15.4264C125.308 15.4264 126.017 14.1989 126.283 14.1989C126.655 14.1989 128.552 16.0677 128.552 16.9105M81.1273 8.04287C81.1273 10.2964 82.5456 11.7988 84.6908 11.7988C86.836 11.7988 88.4671 10.2964 88.4671 8.04287C88.4671 5.78933 86.9424 4.28696 84.7263 4.28696C82.5102 4.28696 81.1273 5.80765 81.1273 8.04287ZM77.9007 8.1528C77.9007 5.0015 80.3473 2.89453 84.1235 2.67467C84.159 2.56474 84.1944 2.47313 84.1944 2.3632C84.1944 2.05174 84.1235 1.70363 83.6803 1.37384C83.6803 0.677624 85.9496 1.37384 85.9496 1.75859C85.9496 1.90517 85.7723 2.32656 85.6836 2.67467C89.2826 2.94949 91.6583 5.05647 91.6583 8.1528C91.6583 11.414 88.9103 13.5576 84.7972 13.5576C80.6841 13.5576 77.9007 11.414 77.9007 8.1528ZM98.2179 17.735C98.2179 17.8815 98.0761 17.9731 97.8456 17.9731H90.4704V19.6587C90.4704 24.404 89.6549 28.0866 89.2117 29.1676C88.9457 29.479 88.3252 29.6256 87.9884 29.5523C87.7225 28.6729 87.2438 25.943 87.2438 21.6924V17.9731L82.0492 18.0098V19.0724C82.0492 23.7811 81.2337 27.4637 80.8259 28.5446C80.56 28.8561 79.9395 29.0027 79.5672 28.9294C79.3367 28.05 78.858 25.3201 78.858 21.1061V18.0098H76.6242C75.4009 18.0098 74.5854 18.3579 74.2131 18.706C73.2557 18.4312 71.3233 16.8738 71.3233 16.4891C71.3233 16.3792 71.5006 15.9944 71.5892 16.0311C72.1743 16.2326 74.2485 16.2692 76.2164 16.2692L92.8638 16.1959C94.9735 16.1959 95.6827 14.9684 95.9486 14.9684C96.3209 14.9684 98.2179 16.8555 98.2179 17.6983M51.0592 6.63212C51.0592 8.55587 52.4598 9.92999 54.5518 9.92999C56.6438 9.92999 58.0444 8.55587 58.0444 6.63212C58.0444 4.70836 56.6438 3.40753 54.5518 3.40753C52.4598 3.40753 51.0592 4.745 51.0592 6.63212ZM47.8326 6.77869C47.8326 4.01214 50.1728 1.99677 53.8072 1.75859C53.8426 1.57538 53.9136 1.44713 53.9136 1.26391C53.9136 0.952447 53.8072 0.62266 53.3994 0.311194C53.3994 -0.421667 55.6687 0.311194 55.6687 0.659303C55.6687 0.879161 55.4382 1.35552 55.2964 1.74027C58.8954 1.97845 61.3065 3.99382 61.3065 6.76037C61.3065 9.67349 58.5585 11.7438 54.5518 11.7438C50.5451 11.7438 47.8326 9.67349 47.8326 6.76037M63.9304 28.8561C63.9304 29.0393 63.7885 29.0943 63.558 29.0943H50.3501C48.0808 29.0943 47.283 28.2881 47.2298 26.456L47.1589 24.1108C47.1589 23.7627 46.2724 23.3047 45.7051 23.0482C45.6696 22.865 46.1838 22.2787 46.4497 22.2787C47.088 22.2787 49.5168 22.4253 50.3855 22.7367H58.984L59.0195 19.8969H50.421C49.375 19.8969 48.6835 20.1717 48.3112 20.5381C47.088 20.3549 46.0951 18.706 46.0774 18.4678C46.042 18.2846 46.2192 17.9365 46.3788 17.9731C47.4603 18.1747 48.8254 18.1747 50.7933 18.1747H57.8316C58.789 18.1747 59.2854 18.0647 59.6577 17.68C60.0655 17.6433 62.778 17.9548 62.6893 18.4128L61.8383 22.5535C62.4766 23.0482 62.8843 23.891 62.8843 24.0925C62.8843 24.2757 62.778 24.404 62.6184 24.404C62.317 24.404 60.3846 24.3673 58.8067 24.3673H50.3855V25.9063C50.3855 27.0972 50.7224 27.3354 52.247 27.3354H59.6932C61.8029 27.3354 62.1043 26.4193 62.3348 26.4193C62.8134 26.4193 63.9304 28.0683 63.9304 28.8011M67.813 15.2799C67.813 15.4264 67.6711 15.5181 67.4407 15.5181H62.6539L46.237 15.5547C45.0491 15.5547 44.2336 15.9028 43.8613 16.2143C42.8685 15.9394 41.1133 14.4188 40.9715 14.034C40.936 13.9241 41.1488 13.5393 41.2374 13.576C41.8225 13.7958 43.879 13.8325 45.8647 13.8325L62.4766 13.7592C64.5509 13.7592 65.26 12.5316 65.5614 12.5316C65.9337 12.5316 67.7952 14.4188 67.7952 15.2615M30.2987 15.2066C30.2987 15.5181 30.0683 15.518 29.2527 15.7745C28.9159 15.8845 28.7386 16.4341 28.4727 17.3136C27.8876 19.164 26.0261 22.1504 22.1612 22.1504C18.2963 22.1504 16.2575 18.7426 16.1157 18.5594C15.9207 18.2846 15.6015 18.0281 15.3356 18.0281C15.1583 18.0281 15.0342 18.1014 14.9278 18.1747C13.5273 19.164 12.0026 20.2816 12.0026 22.8467C12.0026 24.5322 13.3677 26.456 15.6724 26.456C17.6403 26.456 18.9346 24.5322 19.3423 23.1948C19.4841 22.7367 19.4487 22.5535 19.6792 22.5535C19.9806 22.5535 20.0869 23.2497 20.4947 23.2497C20.8315 23.2497 20.7252 23.0665 21.1684 23.0665C21.5762 23.0665 21.6825 23.6345 22.0194 23.6345C22.4981 23.6345 23.1363 23.2131 23.4554 23.2131C23.5618 23.2131 23.7213 23.2131 23.7213 23.323C23.7213 23.5062 23.42 23.6711 23.1363 23.9276C22.5512 24.4589 22.1257 24.7704 21.6825 25.5399C20.1224 28.2698 18.314 28.7645 17.3921 29.0576C17.0553 29.1676 16.7184 29.3325 16.5766 29.6623C16.0625 30.8532 15.7611 30.9997 15.6193 30.9997C15.442 30.9997 15.3888 30.7982 15.3533 30.3402C15.3179 29.8455 15.0519 29.2775 14.13 29.1126C11.7898 28.6546 8.90003 26.1995 8.90003 22.3337C8.90003 18.8526 11.453 17.4968 12.7472 16.1593C12.9245 15.9761 13.0486 15.7745 13.0486 15.4631V15.3532C13.0486 15.1883 13.0131 14.9684 12.8004 14.6936C11.5062 13.008 10.5311 11.8904 8.7582 11.8904C6.82576 11.8904 5.12379 13.5393 5.12379 15.9211C5.12379 18.4861 6.34708 19.3656 7.57037 19.677C7.97813 19.787 8.11996 19.8236 8.11996 19.9519C8.11996 20.2267 7.85403 20.1717 7.85403 20.5931C7.85403 20.9046 8.0845 20.8679 8.0845 21.3626C8.0845 21.7107 7.78311 21.8207 7.78311 22.352C7.78311 22.7734 7.97813 22.9199 7.97813 23.1581C7.97813 23.4696 8.15542 23.4329 8.15542 24.1108C8.15542 24.2941 8.22633 24.4223 8.0845 24.4223C7.94267 24.4223 7.78311 24.1841 7.57037 23.8543C7.09169 23.1215 6.57755 22.6634 6.20525 22.3703C3.24453 20.1534 3.13816 19.1824 2.39354 17.6617C2.21626 17.3136 2.16307 16.7089 1.80849 16.5441C0.727033 15.9761 -0.0175781 15.8112 -0.0175781 14.8951C-0.0175781 14.4737 0.461101 14.8951 1.20571 14.8951C1.61348 14.8951 2.09215 14.9684 2.32263 14.089C2.83677 12.2202 4.96423 9.23377 8.70501 9.23377C12.6763 9.23377 14.6442 12.6416 14.786 12.8248C15.0519 13.2095 15.3001 13.3561 15.5661 13.3561C15.7434 13.3561 15.8675 13.3561 16.1689 13.0813C18.6863 10.7728 18.8814 9.74677 18.8814 8.4093C18.8814 6.72372 17.5872 4.76332 15.2824 4.76332C12.9777 4.76332 11.8785 6.65044 11.5771 8.06119C11.4707 8.51923 11.3998 8.75741 11.2048 8.75741C10.9034 8.75741 10.9034 8.33602 10.5665 8.33602C10.0169 8.33602 9.96376 8.5742 9.6801 8.5742C9.30779 8.5742 9.30779 7.87798 8.7582 7.87798C8.61637 7.87798 8.31498 8.06119 8.11996 8.06119C7.60582 8.06119 7.57037 8.17112 7.33989 8.17112C7.07396 8.17112 6.7903 8.02455 6.7903 7.82301C6.7903 7.62148 6.96759 7.47491 7.49945 7.20008C8.2086 6.81533 8.86457 6.54051 9.20142 5.75268C10.2474 3.33424 12.5699 2.56474 13.4563 2.21663C13.7932 2.07006 13.9705 1.94181 14.13 1.61202C14.8392 0.274551 15.1583 0.127979 15.3533 0.127979C15.5483 0.127979 15.5306 0.476087 15.6193 0.897482C15.7256 1.39216 15.7256 1.77691 16.5057 1.97845C18.7218 2.58306 21.9662 4.69004 21.9662 8.53755C21.9662 12.3851 18.2963 14.8218 18.119 14.9684C17.7113 15.2799 17.5694 15.5364 17.5694 15.7745C17.5694 15.9578 17.6758 16.1593 17.7822 16.3792C18.6686 18.2113 20.1933 19.4022 21.9662 19.4022C24.0759 19.4022 25.707 17.3685 25.707 15.2615C25.707 13.1546 24.3419 11.8904 23.154 11.5056C22.7108 11.3591 22.5158 11.3591 22.5158 11.1209C22.5158 10.8461 22.8172 10.9377 22.8172 10.5163C22.8172 10.2048 22.6753 10.2781 22.6753 9.78342C22.6753 9.43531 23.0831 9.32538 23.0831 8.79405C23.0831 8.37266 22.8881 8.22609 22.8881 7.98791C22.8881 7.67644 22.7817 7.71308 22.7817 7.03519C22.7817 6.85197 22.7108 6.72372 22.8526 6.72372C23.0299 6.72372 23.1895 6.9619 23.4022 7.29169C23.8809 8.02455 24.2532 8.59252 24.6255 8.8307C27.3026 10.5896 27.8876 11.7072 28.5081 13.2828C28.65 13.6309 28.7741 14.2355 29.1818 14.4737C29.5187 14.6936 30.2633 14.9318 30.2633 15.2066" fill="white"/>
</g>
<defs>
<clipPath id="clip0_3_1418">
<rect width="190" height="31" fill="white"/>
</clipPath>
</defs>
</svg>
