<svg width="106" height="36" viewBox="0 0 106 36" fill="none" xmlns="http://www.w3.org/2000/svg">
<path d="M84.3904 9.04838C84.3904 9.34658 84.4338 9.65562 84.5533 9.94839C85.0803 11.2496 86.422 12.052 88.1278 11.3743C88.5352 11.2117 99.8181 6.67364 99.8181 6.67364C99.8181 6.67364 95.3744 17.9184 95.206 18.3359C94.5596 19.9461 95.3364 21.4046 96.6565 21.8925C96.9498 22.001 97.254 22.0552 97.5528 22.0498C98.6338 22.0444 99.5845 21.41 100.052 20.1413C100.122 19.9516 105.679 4.72181 105.799 4.35855C105.87 4.14168 106 3.63203 106 3.27962C106 2.52599 105.723 1.81574 105.185 1.27898C104.658 0.747651 103.952 0.476562 103.208 0.476562C102.844 0.476562 102.55 0.541624 102.105 0.68259C101.839 0.769338 87.5139 6.08809 86.2917 6.54352C85.0694 6.99895 84.3904 7.97487 84.3958 9.04838" fill="#ED1C24"/>
<path d="M57.5494 17.6378V17.3125H48.8632V19.53H53.9098C52.5952 23.6831 47.8962 26.1229 47.8962 26.1229L49.1511 27.8741C49.1511 27.8741 57.5494 24.415 57.5494 17.6324V17.6378Z" fill="#1B1B1B"/>
<path d="M54.8064 32.363V28.0527H51.7263V32.9106C51.7263 34.4287 52.9377 35.5239 54.6 35.5239H64.1445V33.3119H55.882C55.1324 33.3119 54.8173 33.0137 54.801 32.363H54.8064Z" fill="#1B1B1B"/>
<path d="M57.2018 21.3993V23.6168H60.8686V28.9626H63.9487V17.0781H60.8686V21.3993H57.2018Z" fill="#1B1B1B"/>
<path d="M83.7439 25.9865H86.824V16.9863H83.7439V19.7894H80.5334V21.9798H83.7439V25.9865Z" fill="#1B1B1B"/>
<path d="M14.6562 27.8848H2.93335V32.9107C2.93335 34.4288 4.14475 35.524 5.80703 35.524H15.3407V28.5679C15.3407 28.1884 15.031 27.8848 14.6562 27.8848ZM12.2606 33.312H7.08905C6.33939 33.312 6.01889 33.0192 6.00802 32.3631V30.1077H12.2606V33.312Z" fill="#1B1B1B"/>
<path d="M15.5472 17.3432V17.2402H2.76503V19.4577H12.3258C12.3258 19.6041 12.3258 19.7885 12.3258 19.9674C12.3258 22.0277 12.2226 23.3831 12.1683 23.9361H0V26.1536H18.7468V23.9361H14.9116C15.0963 23.2421 15.5526 21.0951 15.5526 17.3432H15.5472Z" fill="#1B1B1B"/>
<path d="M34.6906 29.0017C37.2492 28.4432 39.1396 26.5294 39.1396 24.2631C39.1396 23.0432 38.5909 21.9263 37.6892 21.0642H40.9594V18.8467H34.6906V16.7539H31.6159V18.8467H25.347V21.0642H28.6173C27.7155 21.9263 27.1668 23.0377 27.1668 24.2631C27.1668 26.5348 29.0573 28.4432 31.6213 29.0017V31.2463H23.788V33.4638H42.5293V31.2463H34.696V29.0017H34.6906ZM30.3284 24.1926C30.3284 22.6799 31.5942 21.4437 33.1478 21.4437C34.7014 21.4437 35.9671 22.6745 35.9671 24.1926C35.9671 25.7107 34.7014 26.9414 33.1478 26.9414C31.5942 26.9414 30.3284 25.7107 30.3284 24.1926Z" fill="#1B1B1B"/>
<path d="M77.8554 25.7973H80.8377C80.7128 25.0762 79.6209 19.2532 76.7798 17.2363H73.3412L70.6957 25.8678H73.7866L75.5467 19.6544C77.0297 21.3894 77.7522 25.228 77.85 25.7973H77.8554Z" fill="#1B1B1B"/>
<path d="M78.469 33.3881C77.6868 33.3881 77.5456 33.1875 77.5456 32.526V32.2495H86.8293V27.5868C86.8293 27.1856 86.536 26.8711 86.1177 26.8711H74.5198V29.0073H83.8796V30.1513H74.6013V32.9109C74.6013 34.5104 75.7529 35.5242 77.4749 35.5242H87.0303V33.3881H78.469Z" fill="#1B1B1B"/>
</svg>
