<svg width="53" height="53" viewBox="0 0 53 53" fill="none" xmlns="http://www.w3.org/2000/svg">
<path d="M21.7304 45C21.7304 45 -1.61236 45.0445 0.0886457 26.0222C1.78965 7.00001 25.7031 7.00001 25.7031 7.00001C25.7031 7.00001 40.8612 6.91853 46.3729 21.3519C46.3729 21.3519 57.503 27.9741 50.2425 39.8259C49.9111 40.363 49.4693 40.8259 48.9354 41.1593C48.2801 41.5667 47.3301 41.9556 46.2919 41.737C44.451 41.3519 43.8435 39.5778 44.1969 37.5926C44.2337 37.3926 44.2926 37.2 44.3736 37.0111C45.0879 35.3408 48.9538 25.3926 40.7397 22.6074C40.482 22.5185 40.2095 22.4741 39.9334 22.4704C38.792 22.4556 35.7766 22.7037 34.8635 25.5926C33.7295 29.1815 31.6198 30.0778 31.6198 30.0778C31.6198 30.0778 26.5131 31.8704 26.3511 33.1778C26.3511 33.1778 32.8348 34.237 31.2148 36.7667C29.5948 39.2963 27.3231 38.7222 27.3231 38.7222C27.3231 38.7222 29.4181 44.5926 37.8936 40.7593C37.8936 40.7593 38.4275 40.3519 38.3465 41.1667C38.2655 41.9815 33.8068 46.6704 27.4446 43.0815C22.4594 40.2704 22.5956 35.3741 23.6634 32.5778C24.05 31.563 24.8011 30.7259 25.7546 30.2185C26.4836 29.8296 27.463 29.3482 28.3356 29.0593C28.3356 29.0593 33.8068 27.9185 32.0248 20.0482C32.0248 20.0482 31.2958 15.7667 30.5263 16.2963C29.7568 16.8259 28.8658 19.1519 28.8658 19.1519C28.8658 19.1519 26.4763 17.7259 23.4351 19.1111C23.4351 19.1111 22.5036 16.0111 21.8556 16.2556C21.2076 16.5 20.4491 19.5296 20.4381 19.8445C20.4381 19.8445 20.0773 22.9593 20.1546 23.7185C20.1546 23.7185 20.1546 26.1222 16.9514 26.6148C13.7482 27.1037 8.96553 27.3889 8.11503 32.5259C7.34552 37.163 12.5921 39.0445 13.6157 39.3667C13.7224 39.4 13.8292 39.4222 13.9397 39.4333C15.1436 39.5593 23.1553 40.5556 22.2201 44.5148L22.2127 44.5482C22.1538 44.7815 21.9697 44.9593 21.7341 45.0037L21.7304 45Z" fill="#1FBA84"/>
<path d="M23.6446 23.848C24.0595 23.848 24.3957 23.5098 24.3957 23.0925C24.3957 22.6752 24.0595 22.3369 23.6446 22.3369C23.2298 22.3369 22.8936 22.6752 22.8936 23.0925C22.8936 23.5098 23.2298 23.848 23.6446 23.848Z" fill="#1FBA84"/>
<path d="M29.0353 23.848C29.4501 23.848 29.7864 23.5098 29.7864 23.0925C29.7864 22.6752 29.4501 22.3369 29.0353 22.3369C28.6205 22.3369 28.2842 22.6752 28.2842 23.0925C28.2842 23.5098 28.6205 23.848 29.0353 23.848Z" fill="#1FBA84"/>
<path d="M38.7739 31.2262C39.7073 31.2262 40.4639 30.4651 40.4639 29.5262C40.4639 28.5873 39.7073 27.8262 38.7739 27.8262C37.8406 27.8262 37.084 28.5873 37.084 29.5262C37.084 30.4651 37.8406 31.2262 38.7739 31.2262Z" fill="#1FBA84"/>
<path d="M26.421 23.7038C26.7781 23.6853 27.0248 24.0667 26.8591 24.3853C26.6971 24.7075 26.2479 24.7297 26.0528 24.426C25.8576 24.1223 26.0638 23.7186 26.421 23.7038Z" fill="#1FBA84"/>
</svg>
