<svg id="logo" xmlns="http://www.w3.org/2000/svg" xmlns:xlink="http://www.w3.org/1999/xlink" width="141.584" height="38.36" viewBox="0 0 141.584 38.36">
  <defs>
    <clipPath id="clip-path">
      <rect id="사각형_21" data-name="사각형 21" width="141.584" height="38.36" fill="none"/>
    </clipPath>
  </defs>
  <rect id="사각형_20" data-name="사각형 20" width="5.477" height="27.419" transform="translate(33.914 10.423)" fill="#362f2d"/>
  <g id="그룹_2" data-name="그룹 2">
    <g id="그룹_1" data-name="그룹 1" clip-path="url(#clip-path)">
      <path id="패스_1" data-name="패스 1" d="M44.644,10.423h6.068l4.663,12.84c.592,1.7,1.11,3.515,1.665,5.254h.185c.592-1.739,1.073-3.552,1.665-5.254l4.551-12.84H69.51V37.842h-5V26.408c0-2.59.406-6.4.7-8.991h-.184l-2.221,6.438L58.594,35.363H55.449L51.193,23.855,49.01,17.417h-.148c.26,2.589.7,6.4.7,8.991V37.842H44.644Z" fill="#362f2d"/>
      <path id="패스_2" data-name="패스 2" d="M74.761,10.423h8.992c6.069,0,10.731,2.146,10.731,8.622,0,6.253-4.7,9.066-10.583,9.066H80.238v9.731H74.761Zm8.77,13.358c3.774,0,5.587-1.591,5.587-4.736,0-3.182-2-4.256-5.772-4.256H80.238v8.992Z" fill="#362f2d"/>
      <path id="패스_3" data-name="패스 3" d="M96.591,24.04c0-8.918,4.995-14.1,12.248-14.1s12.247,5.217,12.247,14.1-4.995,14.32-12.247,14.32S96.591,32.92,96.591,24.04m18.908,0c0-5.884-2.59-9.4-6.66-9.4s-6.661,3.515-6.661,9.4c0,5.846,2.591,9.583,6.661,9.583s6.66-3.737,6.66-9.583" fill="#362f2d"/>
      <path id="패스_4" data-name="패스 4" d="M124.969,10.423h5.477V33.254h11.137v4.588H124.969Z" fill="#362f2d"/>
      <path id="패스_5" data-name="패스 5" d="M0,30.662c1.237,1.567,5.525,4.706,7.67,4.332s8.247.121,4.041-8.95S6.02,8.478,14.68,3.777s12.947-5.36,21.442,0l-.578.99S19.793-5.212,24.658,9.22s8.33,12.37-2.556,23.421c0,0,3.876-13.607-4.041-15.834,0,0,8.247,14.845-2.887,19.3,0,0-7.174.99-9.566,0S0,30.662,0,30.662" fill="#6aae27"/>
    </g>
  </g>
</svg>
