<svg width="144" height="144" viewBox="0 0 144 144" fill="none" xmlns="http://www.w3.org/2000/svg">
<g style="mix-blend-mode:difference" clip-path="url(#clip0_105_54)">
<path d="M19.4298 107.231L28.0498 117.581L26.9398 118.501L23.1398 113.941L22.0198 114.871L25.1698 118.661L21.8598 121.411C21.5998 121.631 21.3598 121.731 21.1498 121.711C20.9398 121.691 20.7298 121.551 20.5098 121.291L13.7998 113.221L14.9098 112.301L21.2098 119.88L23.0398 118.361L16.6798 110.721L17.7898 109.801L20.9898 113.651L22.1098 112.721L18.3098 108.161L19.4198 107.24L19.4298 107.231ZM22.5998 109.411C21.9798 108.661 21.6698 107.94 21.6898 107.24C21.7098 106.54 22.0298 105.92 22.6798 105.38C23.3298 104.84 23.9998 104.631 24.6898 104.751C25.3798 104.871 26.0398 105.301 26.6598 106.041L30.5498 110.711C31.1698 111.461 31.4798 112.18 31.4698 112.88C31.4598 113.58 31.1298 114.2 30.4798 114.74C29.8298 115.28 29.1598 115.491 28.4698 115.371C27.7798 115.251 27.1198 114.821 26.4998 114.081L22.6098 109.411H22.5998ZM25.6798 107.111C25.3198 106.681 24.9698 106.42 24.6198 106.35C24.2698 106.28 23.9698 106.36 23.6898 106.59C23.4098 106.82 23.2698 107.111 23.2798 107.461C23.2798 107.81 23.4698 108.2 23.8298 108.63L27.4498 112.981C27.8098 113.411 28.1598 113.67 28.5098 113.74C28.8598 113.81 29.1598 113.731 29.4398 113.501C29.7198 113.271 29.8598 112.98 29.8498 112.63C29.8498 112.28 29.6598 111.89 29.2998 111.45L25.6798 107.1V107.111Z" fill="white"/>
<path d="M8.81984 97.1002C9.18984 96.9102 9.50984 96.8601 9.75984 96.9501C10.0198 97.0401 10.2398 97.2702 10.4298 97.6402L14.9998 106.82L11.8098 108.41C11.4998 108.56 11.2498 108.6 11.0498 108.54C10.8498 108.47 10.6698 108.29 10.5198 107.98L5.83984 98.5802L8.81984 97.1002ZM9.30984 98.6402L7.83984 99.3702L11.5198 106.76L12.9898 106.03L9.30984 98.6402ZM18.6898 91.9102L23.9398 102.45L20.5198 104.16L16.0598 95.1902L15.1998 95.6202L19.6798 104.61L18.3898 105.25L16.1398 100.74L14.9898 101.31L17.6398 106.62L16.3498 107.26L10.3498 95.2001L11.6398 94.5602L14.2898 99.8702L15.4398 99.3002L13.2098 94.8202L15.7598 93.5502C16.0698 93.4002 16.3198 93.3602 16.5198 93.4202C16.7198 93.4802 16.8998 93.6702 17.0498 93.9802L21.0898 102.09L21.9598 101.66L17.4198 92.5502L18.7098 91.9102H18.6898Z" fill="white"/>
<path d="M8.61977 80.8102C9.02977 80.7202 9.33977 80.7402 9.56977 80.8802C9.79977 81.0202 9.95977 81.3002 10.0598 81.7002L12.3798 91.6902L4.09977 93.6102L3.73977 92.0502L6.40977 91.4302L4.53977 83.3902L1.86977 84.0102L1.50977 82.4502L8.61977 80.8002V80.8102ZM8.74977 82.4302L5.93977 83.0802L7.80977 91.1202L10.6198 90.4702L8.74977 82.4302ZM14.3598 78.4502L17.4098 91.5702L16.0098 91.9002L14.6698 86.1202L12.2098 86.6902L11.8498 85.1302L14.3098 84.5602L12.9698 78.7802L14.3698 78.4502H14.3598Z" fill="white"/>
<path d="M3.15 65.2899L2.95 77.6599L1.51 77.6399L1.6 72.2499L0 72.2199L0.03 70.6199L1.63 70.6499L1.72 65.2699L3.16 65.2899H3.15ZM14.49 64.9099L14.27 78.3799L12.83 78.3599L12.93 72.4199L10.67 72.3799L10.65 73.8699C10.63 75.0299 10.32 75.9199 9.71 76.5199C9.1 77.1199 8.29 77.4199 7.26 77.3999C6.24 77.3799 5.43 77.0599 4.84 76.4399C4.25 75.8199 3.97 74.9199 3.99 73.7599L4.06 69.1799C4.08 68.0199 4.39 67.1299 5 66.5299C5.61 65.9299 6.42 65.6299 7.45 65.6499C8.47 65.6699 9.28 65.9899 9.87 66.6099C10.46 67.2299 10.74 68.1299 10.72 69.2899L10.7 70.7799L12.95 70.8199L13.05 64.8799L14.49 64.8999V64.9099ZM9.28 69.4899C9.29 68.7299 9.12 68.1799 8.76 67.8199C8.4 67.4599 7.96 67.2799 7.43 67.2699C6.9 67.2699 6.45 67.4299 6.08 67.7799C5.71 68.1299 5.52 68.6799 5.51 69.4299L5.44 73.5899C5.43 74.3499 5.6 74.8999 5.96 75.2599C6.32 75.6199 6.76 75.7999 7.29 75.8099C7.82 75.8099 8.27 75.6499 8.64 75.2999C9.01 74.9499 9.2 74.3999 9.21 73.6399L9.28 69.4799V69.4899Z" fill="white"/>
<path d="M13.75 54.38L13.38 55.92L7.85998 54.6L7.43998 56.36L11.08 57.23L10.71 58.77L3.99998 57.17L3.90998 57.54C3.83998 57.85 3.83998 58.09 3.93998 58.25C4.02998 58.42 4.19998 58.58 4.42998 58.73L9.87998 62.22L9.46998 63.93L3.69998 60.21C3.40998 60.03 3.16998 59.86 2.97998 59.68C2.78998 59.51 2.62998 59.32 2.51998 59.13C2.40998 58.93 2.33998 58.71 2.32998 58.45C2.31998 58.19 2.34998 57.89 2.42998 57.54L2.96998 55.28L5.99998 56.01L6.41998 54.25L3.20998 53.48L3.57998 51.94L13.74 54.37L13.75 54.38ZM14.76 51.5L14.39 53.06L3.91998 50.56L4.28998 49L14.76 51.5ZM18.38 52.27L15.74 63.3L10.79 62.12L11.16 60.56L14.71 61.41L16.98 51.93L18.38 52.26V52.27Z" fill="white"/>
<path d="M21.4199 42.97L17.4699 50.76L6.83993 45.37C6.53993 45.22 6.34993 45.04 6.28993 44.84C6.21993 44.64 6.26993 44.39 6.41993 44.08L9.28993 38.41L10.5499 39.05L7.96993 44.15L11.5099 45.94L13.9499 41.13L15.1799 41.75L12.7399 46.56L16.9499 48.69L20.1699 42.32L21.4299 42.96L21.4199 42.97ZM24.1199 40.75L23.3999 42.18L16.7199 38.8L15.5699 41.07L14.2599 40.4L15.4099 38.13L10.4999 35.64L11.2199 34.21L24.1199 40.75Z" fill="white"/>
<path d="M66.3499 8.20992L53.1499 10.9199L52.8599 9.50992L58.6699 8.31992L58.3799 6.88992L53.5499 7.87992L52.6799 3.65992C52.6099 3.32992 52.6299 3.06992 52.7499 2.88992C52.8699 2.70992 53.0899 2.58992 53.4299 2.51992L63.7199 0.419922L64.0099 1.82992L54.3599 3.80992L54.8399 6.13992L64.5699 4.13992L64.8599 5.54992L59.9499 6.55992L60.2399 7.98992L66.0499 6.79992L66.3399 8.20992H66.3499ZM62.9399 9.96992C63.8899 9.76992 64.6699 9.84992 65.2899 10.1899C65.8999 10.5299 66.2999 11.1199 66.4699 11.9399C66.6399 12.7699 66.5099 13.4599 66.0799 14.0099C65.6499 14.5699 64.9599 14.9399 64.0099 15.1399L58.0499 16.3599C57.0999 16.5599 56.3199 16.4799 55.6999 16.1399C55.0799 15.7999 54.6899 15.2099 54.5199 14.3899C54.3499 13.5599 54.4799 12.8699 54.9099 12.3199C55.3399 11.7599 56.0299 11.3899 56.9799 11.1899L62.9399 9.96992ZM63.4999 13.7799C64.0499 13.6699 64.4399 13.4699 64.6599 13.2099C64.8799 12.9399 64.9599 12.6299 64.8799 12.2699C64.8099 11.9099 64.6199 11.6599 64.3099 11.4999C63.9999 11.3399 63.5699 11.3199 63.0099 11.4299L57.4599 12.5699C56.9099 12.6799 56.5199 12.8799 56.2999 13.1399C56.0799 13.4099 55.9999 13.7199 56.0799 14.0799C56.1499 14.4299 56.3399 14.6899 56.6599 14.8499C56.9699 15.0099 57.3999 15.0299 57.9599 14.9199L63.5099 13.7799H63.4999Z" fill="white"/>
<path d="M80.2005 14.7803L68.4305 14.4503L68.5405 10.6303L78.5505 10.9103L78.5805 9.95032L68.5405 9.67032L68.5805 8.23032L73.6205 8.37032L73.6605 7.09032L67.7305 6.92032L67.7705 5.48032L81.2405 5.86032L81.2005 7.30032L75.2705 7.13032L75.2305 8.41032L80.2405 8.55032L80.1605 11.4003C80.1605 11.7403 80.0705 11.9803 79.9205 12.1303C79.7705 12.2703 79.5205 12.3403 79.1805 12.3303L70.1305 12.0803L70.1005 13.0603L80.2705 13.3503L80.2305 14.7903L80.2005 14.7803ZM80.2705 3.62032C80.2605 4.04032 80.1505 4.34032 79.9605 4.52032C79.7705 4.70032 79.4605 4.79032 79.0405 4.78032L68.7905 4.49032L68.8905 0.920322C68.8905 0.580322 68.9805 0.340322 69.1305 0.190322C69.2805 0.0403221 69.5305 -0.0196779 69.8705 -0.00967794L80.3605 0.280322L80.2705 3.61032V3.62032ZM78.6805 3.34032L78.7305 1.69032L70.4805 1.46032L70.4305 3.11032L78.6805 3.34032Z" fill="white"/>
<path d="M94.1303 17.2698L81.1104 13.7998L81.4804 12.4098L87.2204 13.9398L87.8704 11.4998L89.4203 11.9098L88.7703 14.3498L94.5104 15.8798L94.1404 17.2698H94.1303ZM94.7403 11.0898C94.6303 11.4898 94.4604 11.7598 94.2304 11.8998C93.9904 12.0398 93.6803 12.0498 93.2703 11.9398L83.3604 9.29984L85.5504 1.08984L87.1003 1.49984L86.4004 4.13984L94.3803 6.26984L95.0804 3.62984L96.6303 4.03984L94.7504 11.0898H94.7403ZM93.2504 10.4498L93.9903 7.66984L86.0104 5.53984L85.2703 8.31984L93.2504 10.4498Z" fill="white"/>
<path d="M106.1 23.7101L94.2402 17.3201L94.9202 16.0501L100.15 18.8701L101.22 16.8801L99.9102 16.1701C98.8902 15.6201 98.2502 14.9301 97.9902 14.1201C97.7302 13.3001 97.8502 12.4401 98.3302 11.5401C98.8202 10.6401 99.4702 10.0701 100.29 9.83008C101.11 9.60008 102.04 9.75008 103.06 10.3101L107.09 12.4801C108.11 13.0301 108.75 13.7201 109.01 14.5301C109.27 15.3401 109.15 16.2101 108.67 17.1101C108.18 18.0101 107.53 18.5801 106.71 18.8201C105.89 19.0501 104.96 18.9001 103.94 18.3501L102.63 17.6401L101.56 19.6301L106.79 22.4501L106.11 23.7201L106.1 23.7101ZM104.44 16.9801C105.11 17.3401 105.68 17.4401 106.16 17.2901C106.64 17.1401 107.01 16.8301 107.26 16.3601C107.51 15.8901 107.57 15.4101 107.43 14.9301C107.29 14.4401 106.89 14.0201 106.22 13.6601L102.56 11.6901C101.89 11.3301 101.32 11.2301 100.84 11.3801C100.36 11.5301 99.9902 11.8401 99.7402 12.3101C99.4902 12.7801 99.4302 13.2601 99.5702 13.7401C99.7102 14.2201 100.11 14.6501 100.78 15.0101L104.44 16.9801ZM110.98 13.4701L100.09 7.60008L100.77 6.33008L105.52 8.89008L106.28 7.48008L107.69 8.24008L106.93 9.65008L111.66 12.2001L110.98 13.4701Z" fill="white"/>
<path d="M115.32 33.1607L106.83 25.6307L110.21 21.8207L111.41 22.8807L108.99 25.6107L116.28 32.0807L115.32 33.1607ZM115.64 28.0707L114.45 27.0207L118.22 22.7707L116.87 21.5707L114.38 24.3707L113.2 23.3207L117.78 18.1607L117.49 17.9107C117.25 17.7007 117.04 17.5907 116.85 17.6007C116.66 17.6107 116.44 17.6707 116.19 17.8107L110.54 20.9707L109.22 19.8007L115.22 16.4607C115.51 16.2907 115.78 16.1607 116.02 16.0707C116.26 15.9807 116.5 15.9307 116.73 15.9307C116.96 15.9307 117.19 15.9707 117.42 16.0807C117.65 16.1907 117.91 16.3607 118.18 16.6007L119.92 18.1407L117.85 20.4707L119.2 21.6707L121.39 19.2007L122.57 20.2507L115.64 28.0607V28.0707ZM117.7 30.3307L116.5 29.2707L123.65 21.2207L124.85 22.2807L117.7 30.3307Z" fill="white"/>
<path d="M122.11 40.21L117.08 33.07L126.83 26.21C127.11 26.01 127.35 25.93 127.56 25.97C127.77 26.01 127.97 26.16 128.17 26.44L131.83 31.63L130.68 32.44L127.39 27.77L124.15 30.06L127.25 34.47L126.13 35.26L123.03 30.85L119.17 33.57L123.28 39.4L122.13 40.21H122.11ZM122.8 43.64L121.88 42.33L128 38.02L126.54 35.94L127.74 35.09L129.2 37.17L133.7 34L134.62 35.31L122.8 43.64Z" fill="white"/>
<path d="M131.7 92.3702C131.43 93.3002 130.99 93.9602 130.4 94.3402C129.81 94.7202 129.11 94.7902 128.3 94.5602C127.49 94.3202 126.94 93.8802 126.65 93.2402C126.36 92.6002 126.35 91.8102 126.63 90.8802L128.34 85.0502C128.61 84.1202 129.05 83.4602 129.64 83.0802C130.23 82.7002 130.93 82.6302 131.74 82.8602C132.55 83.1002 133.1 83.5402 133.39 84.1802C133.68 84.8202 133.69 85.6102 133.41 86.5402L131.7 92.3702ZM128.07 91.0902C127.91 91.6302 127.9 92.0702 128.03 92.3902C128.16 92.7102 128.4 92.9302 128.75 93.0302C129.1 93.1302 129.42 93.0802 129.7 92.8802C129.98 92.6802 130.21 92.3102 130.37 91.7702L131.97 86.3402C132.13 85.8002 132.14 85.3702 132.01 85.0402C131.88 84.7202 131.64 84.5002 131.29 84.4002C130.94 84.3002 130.62 84.3502 130.34 84.5502C130.05 84.7502 129.83 85.1202 129.67 85.6602L128.07 91.0902ZM131.65 96.2102L135.45 83.2902L136.83 83.7002L135.16 89.3902L136.56 89.8002L137.95 85.0702L142.08 86.2802C142.41 86.3802 142.62 86.5202 142.72 86.7002C142.82 86.8902 142.82 87.1402 142.72 87.4702L139.76 97.5402L138.38 97.1302L141.16 87.6702L138.87 87.0002L136.07 96.5302L134.69 96.1202L136.1 91.3202L134.7 90.9102L133.03 96.6102L131.65 96.2002V96.2102Z" fill="white"/>
<path d="M119.33 105.34L125.18 95.1201L128.5 97.0201L123.53 105.71L124.36 106.19L129.35 97.4701L130.6 98.1801L128.1 102.56L129.21 103.2L132.16 98.0501L133.41 98.7601L126.72 110.45L125.47 109.73L128.42 104.58L127.31 103.94L124.82 108.29L122.35 106.88C122.05 106.71 121.88 106.52 121.82 106.32C121.76 106.12 121.82 105.87 121.99 105.57L126.49 97.7101L125.64 97.2301L120.59 106.06L119.34 105.35L119.33 105.34ZM129.13 110.66C128.77 110.45 128.55 110.22 128.48 109.96C128.41 109.7 128.48 109.39 128.68 109.03L133.77 100.13L136.87 101.9C137.17 102.07 137.34 102.26 137.4 102.46C137.45 102.66 137.4 102.91 137.23 103.21L132.02 112.32L129.13 110.67V110.66ZM130.13 109.39L131.56 110.21L135.66 103.04L134.23 102.22L130.13 109.39Z" fill="white"/>
<path d="M110.56 116.44L119.75 106.59L120.8 107.57L116.75 111.91L118.6 113.63L117.51 114.8L115.66 113.07L111.61 117.41L110.56 116.43V116.44ZM115.73 119.88C115.43 119.6 115.27 119.32 115.26 119.05C115.26 118.78 115.39 118.49 115.67 118.19L122.67 110.69L128.88 116.49L127.79 117.66L125.79 115.79L120.16 121.82L122.16 123.69L121.07 124.86L115.74 119.88H115.73ZM116.99 118.88L119.1 120.85L124.73 114.81L122.62 112.85L116.99 118.88Z" fill="white"/>
<path d="M99.2502 124L110.46 116.53L111.26 117.73L106.32 121.02L107.57 122.9L108.81 122.07C109.78 121.42 110.68 121.18 111.52 121.34C112.36 121.5 113.07 122 113.63 122.85C114.2 123.7 114.39 124.55 114.21 125.38C114.03 126.22 113.46 126.96 112.49 127.6L108.68 130.14C107.71 130.79 106.81 131.03 105.97 130.87C105.13 130.71 104.42 130.21 103.85 129.36C103.28 128.51 103.09 127.66 103.27 126.83C103.45 125.99 104.02 125.25 104.99 124.61L106.23 123.78L104.98 121.9L100.04 125.19L99.2402 123.99L99.2502 124ZM105.97 125.69C105.34 126.11 104.98 126.57 104.89 127.07C104.8 127.57 104.89 128.04 105.2 128.48C105.51 128.92 105.89 129.2 106.39 129.31C106.89 129.42 107.45 129.26 108.08 128.84L111.54 126.53C112.17 126.11 112.53 125.65 112.62 125.15C112.71 124.65 112.61 124.18 112.31 123.74C112.01 123.3 111.62 123.02 111.13 122.91C110.64 122.8 110.07 122.96 109.44 123.38L105.98 125.69H105.97ZM106 133.12L116.29 126.26L117.09 127.46L112.6 130.45L113.49 131.78L112.16 132.67L111.27 131.34L106.8 134.32L106 133.12Z" fill="white"/>
<path d="M86.5703 127.7L97.2103 123.75L98.9803 128.52L97.4803 129.08L96.2103 125.66L87.0703 129.05L86.5703 127.7ZM87.9403 131.13L89.4403 130.57L93.1903 140.67L91.6903 141.23L87.9403 131.13ZM90.9103 130.37L92.4003 129.82L94.3703 135.15L96.0703 134.52L94.7703 131.01L96.2603 130.46L98.6603 136.93L99.0203 136.8C99.3203 136.69 99.5103 136.55 99.6003 136.38C99.6903 136.21 99.7303 135.99 99.7203 135.7L99.5903 129.23L101.24 128.62L101.36 135.49C101.37 135.83 101.36 136.12 101.32 136.38C101.28 136.64 101.22 136.87 101.12 137.07C101.02 137.27 100.87 137.45 100.66 137.61C100.45 137.77 100.18 137.91 99.8403 138.03L97.6703 138.84L96.5803 135.92L94.8903 136.55L96.0403 139.64L94.5603 140.19L90.9303 130.4L90.9103 130.37Z" fill="white"/>
<path d="M73.8301 129.331L75.4201 129.141L76.3301 136.571L78.8501 136.261L79.0301 137.721L76.5101 138.031L77.1801 143.491L75.5901 143.681L73.8301 129.321V129.331ZM77.1701 130.341L85.8401 129.281L87.2901 141.111C87.3301 141.451 87.2901 141.701 87.1601 141.871C87.0301 142.041 86.8001 142.141 86.4601 142.181L80.1601 142.951L79.9901 141.551L85.6601 140.861L85.1801 136.921L79.8301 137.571L79.6601 136.201L85.0101 135.541L84.4401 130.861L77.3601 131.731L77.1901 130.331L77.1701 130.341Z" fill="white"/>
<path d="M25.5498 22.9702C25.3998 22.8002 25.2898 22.6102 25.2198 22.3802C25.0398 21.8102 25.2798 21.3302 25.7698 21.0102C26.2598 20.6902 26.8098 20.6102 27.3798 20.6602C27.8298 20.7102 28.2598 20.8202 28.6498 21.0602C29.0798 21.3302 29.4398 21.6602 29.5498 22.1902C29.6298 22.5902 29.4998 22.9102 29.2298 23.1902C28.8298 23.6102 28.2998 23.7402 27.7498 23.7702C26.9898 23.8102 26.0798 23.5602 25.5598 22.9602L25.5498 22.9702Z" fill="white"/>
<path d="M26.48 16.7907C26.9 16.4707 27.53 16.4307 28.04 16.5707C28.84 16.7907 29.46 17.2607 29.84 18.0007C30.01 18.3407 30.08 18.6907 29.97 19.0707C29.86 19.4807 29.58 19.7207 29.19 19.8607C28.8 20.0107 28.4 19.9707 28.02 19.8607C27.3 19.6707 26.73 19.2607 26.33 18.6307C26.11 18.2807 25.99 17.9007 26.06 17.4707C26.11 17.1607 26.27 16.9407 26.47 16.7807L26.48 16.7907Z" fill="white"/>
<path d="M36.3498 14.1C36.8498 14.63 36.8398 15.61 36.7198 16.28C36.6098 16.87 36.3598 17.4 35.8798 17.8C35.5198 18.11 35.0798 18.15 34.6898 17.89C34.4498 17.73 34.2798 17.5 34.1698 17.23C33.8998 16.54 33.8898 15.84 34.1098 15.14C34.2198 14.79 34.3798 14.47 34.6198 14.2C35.0598 13.72 35.7998 13.59 36.2898 14.06C36.3098 14.08 36.3198 14.09 36.3398 14.11L36.3498 14.1Z" fill="white"/>
<path d="M32.6 17.1304C32.19 17.6604 31.65 17.7604 31.12 17.4804C30.7 17.2604 30.43 16.9004 30.22 16.4904C29.93 15.9104 29.85 15.3104 29.99 14.6804C30.05 14.4104 30.16 14.1404 30.36 13.9404C30.72 13.5804 31.11 13.5104 31.59 13.7004C31.98 13.8504 32.24 14.1404 32.45 14.4804C32.87 15.1404 33.01 15.8604 32.82 16.6304C32.77 16.8404 32.67 17.0404 32.6 17.1404V17.1304Z" fill="white"/>
<path d="M31.2302 19.4699C32.0502 18.5499 33.5602 18.6099 34.6702 18.7999C35.9202 19.0099 38.0402 19.7099 38.3602 21.1399C38.5402 21.9399 38.1402 22.7299 37.4802 23.1899C36.7002 23.7299 35.7502 23.6799 34.8902 23.3499C35.0502 23.4099 34.8502 24.1999 34.8202 24.3299C34.5602 25.3699 33.5802 27.0299 32.2402 26.5199C31.3102 26.1599 31.0102 25.0099 30.7802 24.1499C30.5702 23.3699 30.5002 22.5499 30.5702 21.7499C30.6302 21.0199 30.6702 20.1999 31.1302 19.5999C31.1602 19.5599 31.1902 19.5199 31.2302 19.4799V19.4699Z" fill="white"/>
<path d="M52.0194 136.54C51.9294 136.75 51.8094 136.94 51.6394 137.1C51.2094 137.52 50.6694 137.51 50.1694 137.21C49.6694 136.91 49.3494 136.46 49.1494 135.91C48.9894 135.49 48.8994 135.05 48.9494 134.6C48.9994 134.1 49.1394 133.63 49.5694 133.3C49.8894 133.06 50.2394 133.03 50.6094 133.15C51.1694 133.33 51.5094 133.74 51.7794 134.23C52.1494 134.9 52.3194 135.82 52.0194 136.55V136.54Z" fill="white"/>
<path d="M46.0693 138.419C45.5993 138.189 45.2893 137.629 45.1893 137.109C45.0393 136.299 45.1893 135.539 45.6893 134.859C45.9193 134.559 46.2093 134.339 46.5893 134.269C47.0093 134.189 47.3493 134.339 47.6393 134.619C47.9493 134.909 48.0793 135.279 48.1593 135.669C48.2993 136.399 48.1893 137.099 47.7993 137.729C47.5793 138.079 47.2893 138.359 46.8793 138.479C46.5793 138.569 46.3093 138.529 46.0793 138.409L46.0693 138.419Z" fill="white"/>
<path d="M39.3096 130.73C39.5696 130.04 40.4496 129.63 41.0996 129.45C41.6796 129.29 42.2696 129.28 42.8296 129.54C43.2696 129.73 43.4896 130.11 43.4296 130.57C43.3896 130.86 43.2596 131.11 43.0596 131.32C42.5596 131.87 41.9296 132.18 41.2096 132.29C40.8496 132.34 40.4896 132.34 40.1396 132.24C39.5096 132.06 39.0696 131.45 39.2796 130.8C39.2796 130.78 39.2896 130.76 39.2996 130.74L39.3096 130.73Z" fill="white"/>
<path d="M43.6894 132.76C44.3494 132.9 44.6694 133.33 44.6594 133.93C44.6494 134.41 44.4394 134.8 44.1594 135.17C43.7694 135.68 43.2594 136.02 42.6294 136.17C42.3594 136.23 42.0694 136.26 41.7994 136.17C41.3194 136.01 41.0894 135.69 41.0494 135.17C41.0094 134.75 41.1594 134.39 41.3694 134.06C41.7794 133.39 42.3694 132.95 43.1394 132.78C43.3594 132.73 43.5794 132.73 43.6894 132.75V132.76Z" fill="white"/>
<path d="M46.3896 132.97C45.2096 132.64 44.5896 131.25 44.2796 130.18C43.9196 128.96 43.6196 126.75 44.7596 125.84C45.3996 125.33 46.2896 125.34 46.9796 125.73C47.8096 126.19 48.1796 127.07 48.2596 127.99C48.2496 127.82 49.0396 127.65 49.1696 127.62C50.2196 127.4 52.1396 127.55 52.2696 128.97C52.3596 129.96 51.4596 130.73 50.7796 131.32C50.1696 131.85 49.4696 132.27 48.7196 132.56C48.0396 132.82 47.2896 133.15 46.5396 133C46.4896 132.99 46.4396 132.98 46.3896 132.96V132.97Z" fill="white"/>
<path d="M137.57 53.77C137.79 53.72 138.01 53.7 138.25 53.74C138.84 53.84 139.16 54.27 139.22 54.86C139.28 55.44 139.1 55.97 138.79 56.45C138.54 56.83 138.24 57.16 137.86 57.39C137.43 57.65 136.96 57.82 136.44 57.67C136.05 57.56 135.82 57.3 135.69 56.93C135.5 56.38 135.62 55.85 135.85 55.35C136.16 54.66 136.8 53.96 137.57 53.78V53.77Z" fill="white"/>
<path d="M142.63 57.4297C142.72 57.9397 142.46 58.5297 142.11 58.9197C141.55 59.5297 140.85 59.8597 140.01 59.8597C139.63 59.8597 139.29 59.7497 139 59.4897C138.69 59.1997 138.6 58.8397 138.65 58.4397C138.7 58.0197 138.92 57.6897 139.19 57.3997C139.69 56.8497 140.32 56.5297 141.06 56.4597C141.47 56.4197 141.87 56.4897 142.21 56.7497C142.46 56.9397 142.59 57.1797 142.63 57.4297Z" fill="white"/>
<path d="M140.49 67.4399C139.78 67.6399 138.92 67.1799 138.39 66.7699C137.91 66.3999 137.56 65.9299 137.42 65.3299C137.32 64.8699 137.48 64.4599 137.88 64.2299C138.13 64.0899 138.41 64.0399 138.7 64.0699C139.44 64.1499 140.06 64.4599 140.58 64.9799C140.84 65.2399 141.05 65.5199 141.18 65.8699C141.41 66.4799 141.18 67.1999 140.54 67.4199C140.52 67.4199 140.5 67.4299 140.48 67.4399H140.49Z" fill="white"/>
<path d="M139.51 62.7202C139.23 62.1102 139.38 61.5902 139.87 61.2402C140.26 60.9702 140.7 60.8902 141.16 60.9002C141.81 60.9002 142.38 61.1102 142.87 61.5302C143.08 61.7102 143.27 61.9202 143.36 62.2002C143.52 62.6802 143.4 63.0602 143.01 63.4002C142.7 63.6802 142.32 63.7702 141.93 63.8102C141.15 63.8802 140.44 63.6702 139.85 63.1502C139.68 63.0102 139.55 62.8302 139.5 62.7302L139.51 62.7202Z" fill="white"/>
<path d="M138.06 60.43C138.5 61.58 137.76 62.9 137.08 63.79C136.31 64.8 134.72 66.37 133.31 65.99C132.52 65.78 132 65.06 131.89 64.27C131.76 63.33 132.25 62.51 132.94 61.9C132.81 62.01 132.2 61.48 132.1 61.39C131.3 60.68 130.27 59.05 131.34 58.09C132.08 57.43 133.24 57.69 134.11 57.88C134.9 58.05 135.66 58.36 136.34 58.8C136.96 59.19 137.67 59.6 138 60.29C138.02 60.34 138.04 60.38 138.06 60.43Z" fill="white"/>
</g>
<defs>
<clipPath id="clip0_105_54">
<rect width="143.45" height="143.69" fill="white"/>
</clipPath>
</defs>
</svg>
