<svg width="204" height="43" viewBox="0 0 204 43" fill="none" xmlns="http://www.w3.org/2000/svg">
<g clip-path="url(#clip0_25_1207)">
<path d="M24.3572 43C24.3572 43 -1.80726 43.0503 0.0993611 21.5252C2.00598 1.11913e-05 28.8101 1.14933e-05 28.8101 1.14933e-05C28.8101 1.14933e-05 45.8004 -0.0921921 51.9784 16.2403C51.9784 16.2403 64.454 23.7338 56.3157 37.1451C55.9443 37.7528 55.4491 38.2767 54.8507 38.6539C54.1161 39.1149 53.0514 39.555 51.8876 39.3077C49.8242 38.8718 49.1432 36.8643 49.5394 34.6179C49.5807 34.3916 49.6467 34.1737 49.7375 33.96C50.5381 32.0698 54.8713 20.8127 45.6643 17.661C45.3754 17.5604 45.07 17.5101 44.7605 17.506C43.4811 17.4892 40.1012 17.77 39.0778 21.039C37.8067 25.1001 35.442 26.1143 35.442 26.1143C35.442 26.1143 29.718 28.1428 29.5364 29.6222C29.5364 29.6222 36.8038 30.8209 34.988 33.6833C33.1722 36.5458 30.6259 35.8962 30.6259 35.8962C30.6259 35.8962 32.9741 42.539 42.4742 38.2013C42.4742 38.2013 43.0726 37.7403 42.9818 38.6623C42.891 39.5843 37.8933 44.8902 30.7621 40.8291C25.1743 37.6481 25.327 32.1075 26.5238 28.9433C26.9571 27.7949 27.799 26.8478 28.8678 26.2736C29.685 25.8335 30.7827 25.2887 31.7608 24.9618C31.7608 24.9618 37.8933 23.671 35.8959 14.765C35.8959 14.765 35.0788 9.92019 34.2163 10.5195C33.3538 11.1188 32.3551 13.7508 32.3551 13.7508C32.3551 13.7508 29.6767 12.1372 26.2679 13.7047C26.2679 13.7047 25.2238 10.1968 24.4975 10.4734C23.7712 10.75 22.921 14.1783 22.9086 14.5345C22.9086 14.5345 22.5042 18.0592 22.5909 18.9183C22.5909 18.9183 22.5909 21.6383 19.0005 22.1957C15.4101 22.7489 10.0493 23.0717 9.09596 28.8846C8.23344 34.1318 14.1143 36.2608 15.2615 36.6255C15.3812 36.6632 15.5009 36.6883 15.6247 36.7009C16.9742 36.8434 25.9543 37.9708 24.906 42.451L24.8978 42.4887C24.8318 42.7527 24.6254 42.9539 24.3613 43.0042L24.3572 43Z" fill="white"/>
<path d="M26.503 19.0654C26.968 19.0654 27.3449 18.6826 27.3449 18.2104C27.3449 17.7383 26.968 17.3555 26.503 17.3555C26.0381 17.3555 25.6611 17.7383 25.6611 18.2104C25.6611 18.6826 26.0381 19.0654 26.503 19.0654Z" fill="white"/>
<path d="M32.545 19.0654C33.01 19.0654 33.3869 18.6826 33.3869 18.2104C33.3869 17.7383 33.01 17.3555 32.545 17.3555C32.08 17.3555 31.7031 17.7383 31.7031 18.2104C31.7031 18.6826 32.08 19.0654 32.545 19.0654Z" fill="white"/>
<path d="M43.4606 27.4138C44.5068 27.4138 45.3549 26.5525 45.3549 25.4901C45.3549 24.4277 44.5068 23.5664 43.4606 23.5664C42.4145 23.5664 41.5664 24.4277 41.5664 25.4901C41.5664 26.5525 42.4145 27.4138 43.4606 27.4138Z" fill="white"/>
<path d="M29.6152 18.9011C30.0155 18.8802 30.292 19.3118 30.1063 19.6723C29.9247 20.0369 29.4212 20.062 29.2025 19.7184C28.9838 19.3747 29.2149 18.9179 29.6152 18.9011Z" fill="white"/>
<path d="M93.0696 25.5362H72.0225V22.2672H80.367V20.8087H73.3348V13.8684C73.3348 13.2816 73.4669 12.8542 73.731 12.5859C73.9951 12.3177 74.4161 12.1836 74.9938 12.1836H91.6334V15.4023H77.4452V17.59H91.782V20.8087H84.725V22.2672H93.0696V25.5362ZM87.3745 26.5882C88.1008 26.5882 88.7652 26.6846 89.3677 26.8774C89.9703 27.0701 90.4903 27.3509 90.9277 27.7198C91.3652 28.0886 91.7077 28.537 91.9553 29.0651C92.2029 29.5931 92.3267 30.1925 92.3267 30.863C92.3267 31.5336 92.2029 32.1329 91.9553 32.661C91.7077 33.1891 91.3652 33.6375 90.9277 34.0063C90.4903 34.3751 89.9703 34.6559 89.3677 34.8487C88.7652 35.0415 88.1008 35.1379 87.3745 35.1379H77.7176C76.9912 35.1379 76.3268 35.0415 75.7243 34.8487C75.1217 34.6559 74.6018 34.3751 74.1643 34.0063C73.7269 33.6375 73.3843 33.1891 73.1367 32.661C72.8891 32.1329 72.7653 31.5336 72.7653 30.863C72.7653 30.1925 72.8891 29.5931 73.1367 29.0651C73.3843 28.537 73.7269 28.0886 74.1643 27.7198C74.6018 27.3509 75.1217 27.0701 75.7243 26.8774C76.3268 26.6846 76.9912 26.5882 77.7176 26.5882H87.3745ZM86.7059 31.8731C87.7129 31.8731 88.2163 31.5378 88.2163 30.8672C88.2163 30.1967 87.7129 29.8614 86.7059 29.8614H78.3861C77.3792 29.8614 76.8757 30.1967 76.8757 30.8672C76.8757 31.5378 77.3792 31.8731 78.3861 31.8731H86.7059Z" fill="white"/>
<path d="M114.562 35.1424H95.6446V28.7552H110.204V27.85H95.5951V25.0084H102.801V23.8014H94.4561V20.6833H115.503V23.8014H107.159V25.0084H114.315V29.4593C114.315 30.2137 114.191 30.7166 113.943 30.9681C113.696 31.2196 113.2 31.3453 112.458 31.3453H99.755V32.2505H114.562V35.1424ZM114.191 16.706C114.191 17.7957 113.976 18.5584 113.547 18.9943C113.118 19.4302 112.367 19.6481 111.294 19.6481H95.7684V13.8645C95.7684 13.2777 95.9005 12.8503 96.1646 12.582C96.4287 12.3138 96.8496 12.1797 97.4274 12.1797H114.191V16.706ZM110.08 16.53V15.2978H99.8788V16.53H110.08Z" fill="white"/>
<path d="M137.937 33.5537H116.89V30.2847H125.234V26.9654H129.592V30.2847H137.937V33.5537ZM136.624 23.0216C136.624 24.1113 136.41 24.8741 135.981 25.31C135.551 25.7458 134.8 25.9638 133.727 25.9638H118.202V12.2549H122.312V15.7754H132.514V12.2549H136.624V23.0175V23.0216ZM132.514 22.6906V19.0444H122.312V22.6906H132.514Z" fill="white"/>
<path d="M160.37 33.5537H139.323V30.2847H147.767V27.8958H146.058C145.2 27.8958 144.432 27.77 143.756 27.5186C143.079 27.2671 142.505 26.9151 142.035 26.4624C141.564 26.0098 141.201 25.4566 140.945 24.8028C140.689 24.149 140.561 23.4197 140.561 22.6151C140.561 21.8104 140.689 21.0811 140.945 20.4273C141.201 19.7735 141.564 19.2203 142.035 18.7677C142.505 18.3151 143.079 17.963 143.756 17.7116C144.432 17.4601 145.2 17.3344 146.058 17.3344H153.611C154.469 17.3344 155.236 17.4601 155.913 17.7116C156.59 17.963 157.164 18.3151 157.634 18.7677C158.105 19.2203 158.468 19.7735 158.724 20.4273C158.98 21.0811 159.108 21.8104 159.108 22.6151C159.108 23.4197 158.98 24.149 158.724 24.8028C158.468 25.4566 158.105 26.0098 157.634 26.4624C157.164 26.9151 156.59 27.2671 155.913 27.5186C155.236 27.77 154.469 27.8958 153.611 27.8958H151.902V30.2847H160.37V33.5537ZM159.405 16.1567H140.264V12.938H147.792V10.7754H151.902V12.938H159.405V16.1567ZM152.1 24.6812C154.031 24.6812 154.997 23.9939 154.997 22.6193C154.997 21.2446 154.031 20.5573 152.1 20.5573H147.569C145.637 20.5573 144.672 21.2446 144.672 22.6193C144.672 23.9939 145.637 24.6812 147.569 24.6812H152.1Z" fill="white"/>
<path d="M177.357 28.65H173.692V20.578H171.984V26.1102H168.269V15.5739H167.824C167.543 15.5739 167.341 15.6871 167.217 15.9134C167.093 16.1397 166.99 16.4457 166.908 16.8312L165.026 26.1102H161.312L163.416 15.926C163.548 15.2722 163.701 14.7148 163.874 14.2538C164.048 13.7927 164.275 13.4156 164.555 13.1222C164.836 12.8288 165.195 12.6109 165.632 12.4684C166.07 12.3259 166.627 12.2546 167.304 12.2546H171.984V17.0576H173.692V12.1289H177.357V28.65ZM182.334 35.0161H164.184V26.9694H168.294V31.4957H182.334V35.0161ZM182.185 29.1529H178.496V12.1289H182.185V29.1529Z" fill="white"/>
<path d="M198.131 33.2556H185.429V13.9433C185.429 13.3566 185.561 12.9291 185.825 12.6609C186.089 12.3927 186.51 12.2585 187.088 12.2585H196.844V15.6281H189.539V20.7831H196.101V24.0521H189.539V29.886H198.131V33.2556ZM204 35.0661H199.889V24.0773H197.091V20.4562H199.889V12.1328H204V35.0661Z" fill="white"/>
</g>
<defs>
<clipPath id="clip0_25_1207">
<rect width="204" height="43" fill="white"/>
</clipPath>
</defs>
</svg>
