<svg width="120" height="120" viewBox="0 0 120 120" fill="none" xmlns="http://www.w3.org/2000/svg">
<g style="mix-blend-mode:difference" clip-path="url(#clip0_105_147)">
<path d="M23.4377 92.4537L24.3443 93.4487L17.0662 100.101L18.997 102.235L18.0988 103.052L13.3223 97.7826L14.2121 96.9647L16.1512 99.0979L23.4293 92.4453L23.4377 92.4537Z" fill="white"/>
<path d="M14.5564 84.5612C15.2952 84.0806 15.9751 83.9119 16.6047 84.0468C17.2343 84.1817 17.8303 84.6792 18.376 85.5308L19.7023 87.5797C20.2563 88.4313 20.4578 89.1733 20.3235 89.8141C20.1892 90.4465 19.7527 91.003 19.0139 91.4836L14.1535 94.6455C13.4148 95.1261 12.7348 95.2947 12.0968 95.1598C11.4672 95.0249 10.8712 94.5274 10.3256 93.6758L8.99925 91.6269C8.44521 90.7753 8.24374 90.0333 8.37805 89.3925C8.51236 88.7601 8.94888 88.2037 9.6876 87.7231L14.548 84.5612H14.5564ZM17.335 86.1295C17.058 85.6994 16.7474 85.4549 16.4032 85.3959C16.0591 85.3369 15.6897 85.4381 15.2868 85.691L10.4263 88.8529C10.0318 89.1143 9.78834 89.4094 9.70439 89.7551C9.62044 90.1008 9.71278 90.4802 9.9898 90.9102L11.3833 93.0687C11.6603 93.4988 11.9709 93.7433 12.3151 93.8023C12.6593 93.8613 13.0286 93.7602 13.4316 93.5072L18.292 90.3453C18.6866 90.0839 18.93 89.7888 19.0139 89.4515C19.0979 89.1143 19.0055 88.7264 18.7285 88.2964L17.335 86.1295Z" fill="white"/>
<path d="M15.8152 80.9778L16.3273 82.2257L6.11952 86.4837L4.26433 81.9896C3.87818 81.0537 3.80263 80.2779 4.05446 79.6793C4.3063 79.0806 4.82676 78.6085 5.64103 78.2712L6.84145 77.7653C7.64733 77.428 8.35247 77.3859 8.94848 77.6304C9.54449 77.8749 10.0398 78.4736 10.4259 79.4095L11.769 82.6641L15.8152 80.9778ZM9.28426 79.8226C9.09119 79.3504 8.83096 79.0469 8.50357 78.9289C8.17618 78.8108 7.79843 78.8361 7.35352 79.0216L6.1531 79.5191C5.71658 79.7046 5.42277 79.9491 5.28007 80.2695C5.13736 80.5899 5.16254 80.9862 5.35562 81.4584L6.72393 84.772L10.6526 83.1278L9.28426 79.8142V79.8226Z" fill="white"/>
<path d="M17.4688 35.8004L16.8224 36.9808L8.18442 32.2338L6.80771 34.7633L5.75 34.1815L9.15818 27.9336L10.2159 28.5154L8.83919 31.0449L17.4772 35.7919L17.4688 35.8004Z" fill="white"/>
<path d="M22.0107 24.8151C22.6991 25.3631 23.0852 25.9534 23.1608 26.5942C23.2363 27.235 22.9677 27.9601 22.3381 28.7611L20.8355 30.6835C20.2143 31.4846 19.5763 31.923 18.9383 31.9989C18.3003 32.0748 17.6288 31.8471 16.9404 31.2991L12.3822 27.7156C11.6938 27.1675 11.3077 26.5773 11.2321 25.9365C11.1566 25.2957 11.4252 24.5706 12.0548 23.7695L13.5574 21.8471C14.1786 21.0461 14.8166 20.6077 15.4546 20.5318C16.0926 20.4559 16.7641 20.6835 17.4525 21.2316L22.0107 24.8151ZM21.4315 27.9601C21.7421 27.5554 21.8764 27.1844 21.8177 26.8387C21.7589 26.493 21.549 26.1726 21.1713 25.8775L16.613 22.294C16.2353 21.9989 15.8743 21.8724 15.5301 21.8977C15.186 21.9314 14.8502 22.1422 14.5396 22.547L12.9614 24.579C12.6424 24.9837 12.5165 25.3547 12.5669 25.7004C12.6256 26.0461 12.8355 26.3665 13.2133 26.6616L17.7715 30.2451C18.1492 30.5402 18.5102 30.6667 18.8544 30.6414C19.1986 30.6077 19.5343 30.3969 19.8449 29.9921L21.4231 27.9601H21.4315Z" fill="white"/>
<path d="M25.7963 24.8395L24.789 25.7332L17.4521 17.428L21.0786 14.1986C21.8341 13.5241 22.5392 13.2037 23.1772 13.2459C23.8236 13.2796 24.4364 13.6337 25.0156 14.2914L25.8803 15.2695C26.4595 15.9271 26.7365 16.5848 26.6945 17.2341C26.6526 17.8833 26.258 18.541 25.5025 19.2155L22.8834 21.5511L25.7879 24.8395H25.7963ZM24.7554 18.2543C25.1332 17.917 25.3346 17.5713 25.343 17.2172C25.343 16.8631 25.2003 16.5174 24.8813 16.1548L24.0167 15.1767C23.6977 14.8226 23.3703 14.6287 23.0261 14.5949C22.6819 14.5612 22.3126 14.713 21.9348 15.0587L19.2654 17.4449L22.0943 20.6405L24.7638 18.2543H24.7554Z" fill="white"/>
<path d="M68.8516 11.6526L67.5252 11.4334L69.1538 1.67791L66.3164 1.1973L66.5179 0L73.5105 1.18044L73.3091 2.37774L70.4717 1.89713L68.8432 11.6526H68.8516Z" fill="white"/>
<path d="M80.6884 12.3617C80.403 13.1964 79.9664 13.7529 79.3872 14.0396C78.808 14.3263 78.0357 14.301 77.0787 13.9722L74.7786 13.1796C73.8216 12.8507 73.2004 12.3954 72.915 11.8052C72.6296 11.2234 72.638 10.5152 72.915 9.68042L74.8038 4.18295C75.0892 3.34821 75.5257 2.79172 76.105 2.50504C76.6842 2.21836 77.4565 2.24366 78.4135 2.5725L80.7136 3.36508C81.6705 3.69391 82.2917 4.14922 82.5771 4.73944C82.8626 5.32966 82.8542 6.02949 82.5771 6.86423L80.6884 12.3617ZM77.5404 12.8423C78.0273 13.0109 78.4218 13.0109 78.724 12.8423C79.0263 12.6737 79.2613 12.3701 79.4208 11.9233L81.3096 6.42578C81.4607 5.97047 81.4691 5.59104 81.3264 5.27064C81.1836 4.95024 80.873 4.70572 80.3946 4.53708L77.9685 3.69391C77.4817 3.52528 77.0871 3.52528 76.7849 3.69391C76.4827 3.86255 76.2477 4.16609 76.0882 4.61297L74.1994 10.1104C74.0483 10.5657 74.0399 10.9452 74.1826 11.2656C74.3253 11.586 74.6359 11.8305 75.1144 11.9991L77.5404 12.8423Z" fill="white"/>
<path d="M81.8885 15.9603L80.7217 15.2942L86.1529 5.62305L90.3754 8.01765C91.2568 8.51512 91.7857 9.08005 91.9536 9.70399C92.1299 10.3279 91.9956 11.0278 91.5674 11.7951L90.9294 12.9333C90.5013 13.7006 89.9725 14.1728 89.3513 14.3414C88.7301 14.5185 87.9746 14.3499 87.0931 13.8524L84.0375 12.1239L81.8885 15.9519V15.9603ZM87.7479 12.8406C88.1928 13.0935 88.579 13.161 88.9147 13.0598C89.2505 12.9586 89.5276 12.6972 89.7626 12.2757L90.4006 11.1374C90.6356 10.7242 90.7112 10.3448 90.6272 10.0075C90.5433 9.67026 90.2831 9.37515 89.8381 9.1222L86.7238 7.35998L84.6335 11.0868L87.7479 12.849V12.8406Z" fill="white"/>
<path d="M108.717 55.8003L108.583 54.4597L118.379 53.5069L118.102 50.6317L119.303 50.5137L119.991 57.6047L118.791 57.7228L118.514 54.8476L108.717 55.8003Z" fill="white"/>
<path d="M111.144 67.4451C110.271 67.3861 109.616 67.1163 109.188 66.6272C108.76 66.1382 108.583 65.3878 108.651 64.376L108.81 61.9392C108.877 60.9274 109.154 60.2023 109.633 59.7723C110.111 59.3422 110.8 59.1567 111.673 59.2158L117.448 59.5952C118.321 59.6542 118.976 59.924 119.404 60.4131C119.832 60.9021 120.008 61.6525 119.941 62.6643L119.782 65.1011C119.715 66.1129 119.438 66.838 118.959 67.268C118.481 67.6981 117.792 67.8836 116.919 67.8245L111.144 67.4451ZM109.851 64.5193C109.817 65.0336 109.918 65.4131 110.162 65.666C110.405 65.919 110.758 66.0623 111.228 66.096L117.003 66.4755C117.473 66.5092 117.851 66.408 118.12 66.1888C118.388 65.9696 118.539 65.5986 118.573 65.0927L118.741 62.521C118.774 62.0067 118.674 61.6272 118.43 61.3743C118.187 61.1213 117.834 60.978 117.364 60.9443L111.589 60.5648C111.119 60.5311 110.741 60.6323 110.472 60.8515C110.204 61.0707 110.052 61.4417 110.019 61.9476L109.851 64.5193Z" fill="white"/>
<path d="M108.004 69.5608L108.331 68.2539L119.051 70.9605L117.867 75.6822C117.624 76.6688 117.221 77.3264 116.667 77.6637C116.113 77.9925 115.408 78.0515 114.56 77.8408L113.301 77.5204C112.453 77.3096 111.857 76.9217 111.53 76.3652C111.202 75.8087 111.152 75.033 111.404 74.0549L112.26 70.6401L108.012 69.5693L108.004 69.5608ZM112.554 74.4091C112.428 74.9065 112.461 75.3028 112.654 75.5979C112.848 75.893 113.167 76.0954 113.628 76.2134L114.887 76.5338C115.349 76.6519 115.727 76.6266 116.037 76.458C116.34 76.2893 116.558 75.9521 116.684 75.4546L117.557 71.9723L113.427 70.9268L112.554 74.4091Z" fill="white"/>
<path d="M79.815 104.823L81.0322 104.258L85.1456 113.246L87.7563 112.04L88.2599 113.145L81.8129 116.121L81.3093 115.017L83.92 113.811L79.8066 104.823H79.815Z" fill="white"/>
<path d="M69.633 110.919C69.4064 110.067 69.4484 109.359 69.7674 108.803C70.0863 108.246 70.7327 107.824 71.7149 107.555L74.057 106.914C75.0307 106.644 75.803 106.678 76.3655 106.998C76.9279 107.319 77.3224 107.909 77.5491 108.76L79.0685 114.367C79.2952 115.219 79.2532 115.927 78.9342 116.484C78.6152 117.049 77.9688 117.462 76.9867 117.732L74.6446 118.372C73.6708 118.642 72.8985 118.609 72.3361 118.288C71.7736 117.968 71.3791 117.378 71.1525 116.526L69.633 110.919ZM71.9667 108.743C71.4714 108.878 71.1441 109.098 70.9846 109.41C70.8251 109.722 70.8083 110.101 70.9258 110.565L72.4452 116.172C72.5711 116.636 72.781 116.956 73.0748 117.141C73.3686 117.327 73.7632 117.352 74.2584 117.217L76.7348 116.543C77.2301 116.408 77.5575 116.189 77.717 115.877C77.8765 115.565 77.8933 115.185 77.7757 114.722L76.2563 109.114C76.1304 108.651 75.9206 108.33 75.6267 108.145C75.3329 107.959 74.9384 107.934 74.4431 108.069L71.9667 108.743Z" fill="white"/>
<path d="M66.6275 108.617L67.9622 108.508L68.894 119.57L64.0587 119.983C63.0514 120.068 62.2959 119.907 61.809 119.486C61.3221 119.064 61.0283 118.423 60.9612 117.538L60.852 116.231C60.7765 115.354 60.9528 114.663 61.3641 114.174C61.7838 113.676 62.489 113.39 63.5047 113.305L66.9968 113.01L66.6275 108.626V108.617ZM63.5383 114.52C63.0262 114.562 62.6652 114.722 62.4554 115C62.2371 115.278 62.1532 115.649 62.1951 116.122L62.3043 117.429C62.3462 117.901 62.4973 118.255 62.7492 118.491C63.0094 118.727 63.3872 118.82 63.8992 118.778L67.4585 118.474L67.0976 114.216L63.5383 114.52Z" fill="white"/>
<path d="M36.5417 7.70703C36.4662 7.52997 36.4326 7.34447 36.4326 7.15054C36.4326 6.64464 36.76 6.32423 37.2385 6.20619C37.717 6.07971 38.1703 6.16403 38.6152 6.36639C38.9594 6.52659 39.2784 6.72895 39.5134 7.02406C39.782 7.3529 39.9835 7.71546 39.9247 8.17078C39.8828 8.50804 39.6897 8.7357 39.4043 8.88747C38.9678 9.11513 38.5145 9.0814 38.0696 8.94649C37.4567 8.76943 36.802 8.32255 36.5501 7.71546L36.5417 7.70703Z" fill="white"/>
<path d="M38.9427 3.0276C39.3541 2.88426 39.8745 3.0276 40.2439 3.28055C40.8231 3.66841 41.1841 4.21647 41.2932 4.90787C41.3436 5.21985 41.2932 5.52339 41.1085 5.7932C40.907 6.08831 40.6216 6.20635 40.2775 6.21479C39.9249 6.22322 39.6227 6.08831 39.3457 5.90281C38.8252 5.55711 38.481 5.07651 38.3299 4.46099C38.246 4.12372 38.2544 3.78646 38.4307 3.46605C38.5566 3.2384 38.7329 3.09506 38.9427 3.0276Z" fill="white"/>
<path d="M47.5223 3.54188C47.7825 4.1068 47.5055 4.88252 47.2285 5.37999C46.985 5.82687 46.6408 6.181 46.154 6.3665C45.7846 6.50984 45.4236 6.42552 45.1886 6.11355C45.0375 5.91962 44.9703 5.69196 44.9535 5.44744C44.9284 4.8235 45.1046 4.26701 45.474 3.7611C45.6503 3.51658 45.8685 3.29736 46.1372 3.14559C46.6157 2.87577 47.2369 2.97695 47.5055 3.48286C47.5139 3.49972 47.5223 3.51658 47.5307 3.53345L47.5223 3.54188Z" fill="white"/>
<path d="M43.7188 4.9492C43.2487 5.26118 42.7954 5.20215 42.4428 4.83116C42.1658 4.54448 42.0483 4.18192 41.9979 3.79406C41.9224 3.25443 42.0231 2.74853 42.3001 2.28478C42.426 2.08242 42.5771 1.89693 42.7954 1.78731C43.1815 1.59338 43.5005 1.65241 43.8363 1.93065C44.1049 2.15831 44.2309 2.45342 44.3148 2.78225C44.4743 3.42306 44.3904 4.03858 44.0294 4.6035C43.9287 4.76371 43.8027 4.89018 43.7188 4.9492Z" fill="white"/>
<path d="M42.007 6.45054C42.9052 5.94464 44.0888 6.39152 44.9199 6.84683C45.8601 7.36116 47.3543 8.48258 47.22 9.70518C47.1445 10.3881 46.6156 10.9109 45.9692 11.1048C45.2053 11.3325 44.4582 11.029 43.8706 10.5315C43.9797 10.6242 43.6104 11.1976 43.5516 11.2988C43.0647 12.0576 41.8391 13.12 40.9157 12.3527C40.2693 11.8131 40.3449 10.8182 40.3953 10.0677C40.4372 9.38477 40.6051 8.71867 40.8737 8.09472C41.1172 7.5298 41.369 6.88899 41.8979 6.52642C41.9315 6.50113 41.9734 6.47583 42.007 6.45897V6.45054Z" fill="white"/>
<path d="M43.5847 115.144C43.5091 115.321 43.4084 115.482 43.2657 115.616C42.9047 115.971 42.4514 115.962 42.0317 115.718C41.612 115.465 41.3433 115.085 41.1754 114.63C41.0411 114.276 40.9656 113.905 40.9992 113.525C41.0411 113.104 41.1587 112.699 41.5112 112.421C41.7798 112.21 42.0737 112.185 42.3843 112.286C42.8543 112.438 43.1482 112.783 43.3748 113.188C43.6854 113.745 43.8365 114.529 43.5847 115.144Z" fill="white"/>
<path d="M38.5896 116.746C38.195 116.552 37.9264 116.08 37.8424 115.641C37.7081 114.958 37.834 114.317 38.2538 113.744C38.4385 113.483 38.6903 113.306 39.0093 113.247C39.3619 113.179 39.6473 113.306 39.8991 113.533C40.1593 113.778 40.2685 114.09 40.3356 114.419C40.4531 115.034 40.3608 115.624 40.0418 116.164C39.8571 116.459 39.6137 116.695 39.2695 116.796C39.0177 116.872 38.791 116.839 38.598 116.746H38.5896Z" fill="white"/>
<path d="M32.8901 110.296C33.1084 109.714 33.8471 109.36 34.3928 109.208C34.8796 109.073 35.3749 109.065 35.8534 109.276C36.2228 109.436 36.4158 109.748 36.3655 110.136C36.3319 110.38 36.2228 110.591 36.0633 110.776C35.6436 111.24 35.1231 111.51 34.5103 111.603C34.2081 111.653 33.9059 111.653 33.6121 111.569C33.0832 111.417 32.7139 110.903 32.8817 110.355C32.8817 110.338 32.8901 110.321 32.8985 110.304L32.8901 110.296Z" fill="white"/>
<path d="M36.5667 111.99C37.1208 112.1 37.3978 112.471 37.381 112.977C37.3726 113.382 37.2047 113.719 36.9697 114.031C36.6423 114.469 36.2226 114.756 35.6937 114.882C35.467 114.941 35.2236 114.958 34.9969 114.882C34.594 114.748 34.4009 114.478 34.359 114.048C34.3254 113.694 34.4513 113.39 34.6192 113.103C34.9634 112.538 35.4503 112.167 36.105 112.024C36.2897 111.982 36.4744 111.982 36.5667 111.999V111.99Z" fill="white"/>
<path d="M38.8416 112.15C37.8511 111.872 37.3306 110.709 37.0536 109.806C36.7514 108.778 36.4828 106.914 37.4397 106.147C37.977 105.717 38.7157 105.717 39.3033 106.046C40.0001 106.434 40.3191 107.176 40.3862 107.943C40.3778 107.8 41.041 107.656 41.1501 107.631C42.0316 107.437 43.6433 107.555 43.7608 108.761C43.8364 109.596 43.0809 110.253 42.5185 110.751C42.0064 111.198 41.4188 111.56 40.7892 111.805C40.2183 112.032 39.5888 112.311 38.9592 112.184C38.9172 112.184 38.8752 112.167 38.8332 112.15H38.8416Z" fill="white"/>
<path d="M105.083 23.4397C105.243 23.3385 105.419 23.2711 105.612 23.2373C106.116 23.1614 106.477 23.4313 106.678 23.8781C106.88 24.325 106.871 24.7972 106.745 25.2609C106.645 25.6319 106.493 25.9776 106.25 26.2643C105.973 26.5847 105.646 26.8461 105.192 26.863C104.856 26.8714 104.596 26.7281 104.403 26.4582C104.109 26.062 104.067 25.6151 104.118 25.1429C104.185 24.5021 104.521 23.7854 105.083 23.4313V23.4397Z" fill="white"/>
<path d="M110.078 25.0495C110.279 25.4374 110.229 25.977 110.044 26.3817C109.759 27.0141 109.281 27.4694 108.617 27.6887C108.315 27.7898 108.013 27.7898 107.719 27.6549C107.4 27.5032 107.232 27.2418 107.165 26.9045C107.098 26.5588 107.182 26.2384 107.325 25.9264C107.585 25.3531 107.996 24.9315 108.575 24.6785C108.894 24.5436 109.23 24.493 109.566 24.6111C109.809 24.6954 109.977 24.8556 110.078 25.0495Z" fill="white"/>
<path d="M110.985 33.6256C110.472 33.9713 109.667 33.8279 109.129 33.634C108.651 33.4654 108.248 33.1787 107.979 32.7318C107.778 32.3861 107.803 32.0236 108.063 31.7285C108.231 31.5514 108.441 31.4418 108.684 31.3912C109.289 31.2563 109.876 31.349 110.422 31.6273C110.691 31.7622 110.943 31.9392 111.136 32.1838C111.48 32.6138 111.48 33.2462 111.027 33.6003C111.01 33.6087 110.993 33.6256 110.985 33.634V33.6256Z" fill="white"/>
<path d="M108.97 30.1005C108.584 29.6873 108.575 29.2236 108.877 28.8189C109.121 28.4985 109.448 28.3214 109.818 28.2034C110.338 28.0432 110.85 28.0516 111.345 28.254C111.564 28.3467 111.774 28.4647 111.916 28.6587C112.168 29.0044 112.168 29.3332 111.95 29.7126C111.774 30.0162 111.497 30.1932 111.194 30.3282C110.59 30.5895 109.977 30.6064 109.364 30.345C109.196 30.2691 109.045 30.168 108.978 30.1005H108.97Z" fill="white"/>
<path d="M107.215 28.6423C107.862 29.4517 107.618 30.6996 107.308 31.5934C106.964 32.6052 106.099 34.2747 104.873 34.3421C104.185 34.3843 103.589 33.9458 103.295 33.3387C102.951 32.6136 103.119 31.8295 103.513 31.1634C103.438 31.2814 102.817 31.02 102.708 30.9694C101.885 30.6153 100.634 29.5698 101.239 28.5242C101.658 27.7991 102.649 27.7064 103.396 27.6305C104.067 27.563 104.756 27.6136 105.411 27.7822C106.007 27.934 106.678 28.0689 107.123 28.5411C107.157 28.5748 107.182 28.6085 107.207 28.6423H107.215Z" fill="white"/>
<path d="M107.047 91.1042C107.207 91.2054 107.341 91.3403 107.45 91.5089C107.727 91.9389 107.635 92.3774 107.308 92.7484C106.98 93.1194 106.56 93.3048 106.082 93.3807C105.704 93.4398 105.326 93.4482 104.965 93.3386C104.563 93.2121 104.193 93.0266 103.992 92.6134C103.841 92.3099 103.874 92.0148 104.034 91.7281C104.269 91.2981 104.663 91.0704 105.108 90.9271C105.713 90.7247 106.51 90.7332 107.056 91.1042H107.047Z" fill="white"/>
<path d="M107.643 96.333C107.375 96.6787 106.871 96.8557 106.426 96.8557C105.729 96.8557 105.125 96.6112 104.655 96.0884C104.436 95.8524 104.311 95.5741 104.311 95.2453C104.311 94.8911 104.487 94.6298 104.764 94.4274C105.049 94.2166 105.377 94.166 105.712 94.166C106.334 94.166 106.896 94.3684 107.358 94.7984C107.618 95.0345 107.794 95.3212 107.828 95.6837C107.853 95.9451 107.777 96.1643 107.643 96.333Z" fill="white"/>
<path d="M100.231 100.7C99.7023 100.379 99.5008 99.5781 99.4588 99.0048C99.4168 98.4989 99.5092 98.0099 99.803 97.5798C100.03 97.251 100.374 97.1245 100.743 97.2426C100.978 97.3185 101.163 97.4702 101.306 97.6642C101.675 98.1701 101.834 98.735 101.809 99.3505C101.792 99.654 101.742 99.9491 101.599 100.227C101.348 100.716 100.777 100.986 100.273 100.708C100.256 100.7 100.24 100.691 100.223 100.683L100.231 100.7Z" fill="white"/>
<path d="M102.607 97.4041C102.825 96.8813 103.236 96.679 103.731 96.7886C104.118 96.8729 104.42 97.109 104.68 97.3957C105.041 97.8004 105.242 98.2726 105.259 98.8206C105.268 99.0567 105.242 99.2928 105.125 99.5036C104.915 99.8746 104.613 100.018 104.185 99.9674C103.832 99.9336 103.564 99.7566 103.32 99.5289C102.833 99.082 102.565 98.5255 102.548 97.8594C102.548 97.6739 102.581 97.4884 102.615 97.4041H102.607Z" fill="white"/>
<path d="M103.203 95.1945C102.741 96.122 101.499 96.4086 100.567 96.4929C99.5007 96.5941 97.6371 96.4929 97.0663 95.4053C96.7473 94.7897 96.8984 94.0646 97.3265 93.5419C97.8386 92.9263 98.6193 92.7577 99.3916 92.8505C99.2489 92.8336 99.2321 92.1506 99.2321 92.0326C99.2153 91.1304 99.6434 89.5621 100.844 89.6801C101.675 89.7644 102.17 90.6329 102.548 91.2906C102.892 91.8808 103.127 92.53 103.245 93.1961C103.354 93.8032 103.505 94.4778 103.261 95.0764C103.245 95.1186 103.228 95.1523 103.211 95.1945H103.203Z" fill="white"/>
<path d="M3.28266 60.245C3.09798 60.245 2.9049 60.2029 2.72862 60.1186C2.26692 59.9078 2.11582 59.4862 2.19137 58.9972C2.26692 58.5081 2.53554 58.1287 2.89651 57.7999C3.18192 57.5469 3.50092 57.3445 3.86188 57.2434C4.26482 57.1338 4.68455 57.0916 5.0707 57.3361C5.35611 57.5132 5.49042 57.783 5.50721 58.1118C5.54079 58.6009 5.32253 59.0056 5.02033 59.3597C4.609 59.8572 3.93743 60.2703 3.27426 60.2535L3.28266 60.245Z" fill="white"/>
<path d="M0 56.138C0.0419727 55.6995 0.377754 55.2779 0.755509 55.0418C1.34313 54.6708 1.98951 54.5612 2.66107 54.7467C2.97167 54.831 3.2235 54.9997 3.39979 55.2779C3.58447 55.5815 3.57608 55.8934 3.45016 56.2138C3.31584 56.5427 3.0724 56.7619 2.78699 56.939C2.25813 57.2762 1.67891 57.3943 1.06611 57.2847C0.721931 57.2257 0.419727 57.0739 0.201469 56.7872C0.0419727 56.5764 -0.00839454 56.3572 0.00839454 56.138H0Z" fill="white"/>
<path d="M3.96245 48.4824C4.57525 48.4824 5.17126 49.0389 5.51544 49.5027C5.81764 49.9074 6.00232 50.3711 5.97714 50.8939C5.96035 51.2986 5.7337 51.5853 5.35594 51.678C5.12089 51.7371 4.88585 51.7118 4.6508 51.619C4.07158 51.3914 3.63506 50.9951 3.32446 50.4554C3.17336 50.1941 3.06423 49.9074 3.03905 49.6038C2.98868 49.0558 3.33286 48.5246 3.90368 48.4824C3.92047 48.4824 3.93726 48.4824 3.96245 48.4824Z" fill="white"/>
<path d="M3.70193 52.5378C3.79427 53.0943 3.55083 53.4821 3.08073 53.6592C2.70298 53.7941 2.33362 53.7604 1.95586 53.6507C1.4354 53.499 1.01568 53.2039 0.705078 52.757C0.570765 52.5631 0.47003 52.3438 0.453241 52.0993C0.436452 51.6693 0.612738 51.3911 1.00728 51.2056C1.31788 51.0538 1.64527 51.0538 1.97265 51.1128C2.61903 51.2308 3.14789 51.5597 3.50885 52.1162C3.60959 52.2679 3.67675 52.445 3.69354 52.5378H3.70193Z" fill="white"/>
<path d="M4.36519 54.7224C4.26446 53.6937 5.16268 52.7831 5.90979 52.2097C6.75764 51.552 8.39458 50.6414 9.45229 51.2569C10.0483 51.6026 10.3085 52.3025 10.2162 52.9686C10.1071 53.7611 9.53623 54.3261 8.83949 54.6633C8.9654 54.6043 9.34316 55.1692 9.40192 55.2704C9.8972 56.0208 10.3673 57.5891 9.2844 58.1203C8.53728 58.4913 7.65586 58.0192 6.99269 57.6735C6.38828 57.3615 5.85103 56.9315 5.38933 56.434C4.978 55.9787 4.49111 55.4896 4.38198 54.8573C4.38198 54.8151 4.36519 54.7729 4.36519 54.7308V54.7224Z" fill="white"/>
</g>
<defs>
<clipPath id="clip0_105_147">
<rect width="120" height="120" fill="white"/>
</clipPath>
</defs>
</svg>
